<?xml version="1.0" encoding="UTF-8"?>
<svg version="1.1" xmlns="http://www.w3.org/2000/svg" width="5275" height="1850">
<path d="M0 0 C88.44 0 176.88 0 268 0 C268.01458252 34.03729248 268.02916504 68.07458496 268.04418945 103.14331055 C268.05849857 135.15528408 268.05849857 135.15528408 268.07351188 167.16725728 C268.0745271 169.27988465 268.07554221 171.39251202 268.07655521 173.50513939 C268.10023167 222.8785762 268.12799139 272.25200976 268.15898132 321.6254425 C268.15998695 323.22937716 268.16099257 324.83331182 268.16199819 326.43724648 C268.1831231 360.10971019 268.2048607 393.78217347 268.22730538 427.45463633 C268.23858066 444.37128198 268.24973831 461.2879277 268.26078469 478.2045735 C268.2624516 480.75626838 268.26412187 483.30796326 268.26579228 485.85965814 C268.29146222 525.11788328 268.31462053 564.37610792 268.33044434 603.63433838 C268.3307842 604.47740595 268.33112406 605.32047351 268.33147423 606.18908858 C268.33693792 619.78045695 268.34218939 633.3718254 268.34741267 646.96319386 C268.3624741 686.14576565 268.37912388 725.3283339 268.40612316 764.51089954 C268.40667849 765.31792377 268.40723382 766.124948 268.40780597 766.95642751 C268.42002961 784.67938936 268.43305898 802.40235053 268.44684957 820.12531123 C268.45238561 827.25816551 268.45780585 834.39101988 268.46318626 841.52387428 C268.46377789 842.30449796 268.46436952 843.08512163 268.46497908 843.88940056 C268.48393351 868.97455669 268.4934888 894.05970542 268.49803595 919.14486796 C268.50266606 944.44758763 268.51667426 969.75028381 268.54342634 995.05299029 C268.54713451 998.56245499 268.55073695 1002.07191979 268.55427551 1005.58138466 C268.55532159 1006.61317119 268.55532159 1006.61317119 268.55638881 1007.66580189 C268.56773478 1019.14169663 268.56737929 1030.61756224 268.56376929 1042.09346124 C268.56144174 1052.12176619 268.57009911 1062.15002458 268.58732411 1072.17831486 C268.59680647 1077.87569957 268.60186048 1083.57298137 268.59339563 1089.27037009 C268.47753526 1175.54462009 282.79414739 1259.10751543 324 1343 C324.42780762 1343.85964355 324.85561523 1344.71928711 325.29638672 1345.60498047 C341.0461977 1376.99839585 361.6154442 1406.4035869 385.4453125 1432.19921875 C387.43717823 1434.38296146 389.37836297 1436.59089275 391.30859375 1438.828125 C395.01798798 1443.07980783 398.93734711 1447.08549167 402.9375 1451.0625 C403.60201172 1451.73087891 404.26652344 1452.39925781 404.95117188 1453.08789062 C409.46913154 1457.59708606 414.1562792 1461.84486301 419 1466 C419.96421875 1466.845625 420.9284375 1467.69125 421.921875 1468.5625 C436.09294626 1480.77624098 451.1691965 1492.02565614 467 1502 C467.70962891 1502.44875488 468.41925781 1502.89750977 469.15039062 1503.35986328 C521.81245854 1536.40383926 579.65835416 1555.99554321 640.93896484 1564.70574951 C642.84574034 1564.97797661 644.75107061 1565.26027532 646.65625 1565.54345703 C684.67276403 1570.98133056 726.01287538 1570.62345505 764 1565 C765.21107422 1564.82839355 766.42214844 1564.65678711 767.66992188 1564.47998047 C816.91921427 1557.36718256 862.66601001 1542.31131137 907 1520 C907.77085937 1519.61779297 908.54171875 1519.23558594 909.3359375 1518.84179688 C929.10612076 1509.01531251 947.55665226 1496.46914171 965 1483 C965.969375 1482.25234375 966.93875 1481.5046875 967.9375 1480.734375 C970.32082548 1478.85521453 972.66718658 1476.94145328 975 1475 C976.5159375 1473.74316406 976.5159375 1473.74316406 978.0625 1472.4609375 C989.43367785 1462.97365148 1000.17263755 1452.92503883 1010.6875 1442.5 C1011.56664062 1441.63391113 1012.44578125 1440.76782227 1013.3515625 1439.87548828 C1018.58861362 1434.64532802 1023.40594928 1429.23247439 1028.0324707 1423.45556641 C1029.59593919 1421.50428634 1031.18184426 1419.59569099 1032.828125 1417.71484375 C1091.18683194 1350.79058466 1123.85219865 1260.69832422 1139.40173779 1088.29176696 C1139.396519 1082.47462967 1139.40888666 1076.65752254 1139.41886932 1070.84039509 C1139.43395772 1060.67960176 1139.43817855 1050.51885086 1139.43499184 1040.35804749 C1139.43161501 1029.47465424 1139.43470836 1018.59129328 1139.44572449 1007.70790482 C1139.4464205 1007.01647625 1139.44711652 1006.32504769 1139.44783363 1005.61266674 C1139.4514135 1002.08609702 1139.45509892 998.55952742 1139.45882157 995.03295785 C1139.48544339 969.60977074 1139.49778914 944.18659318 1139.50238609 918.7633934 C1139.50697667 893.6103024 1139.51778652 868.45722639 1139.53681374 843.304142 C1139.53740331 842.5210546 1139.53799288 841.7379672 1139.53860032 840.93114989 C1139.54398894 833.77815185 1139.54945342 826.62515388 1139.55500887 819.47215598 C1139.56881404 801.69590592 1139.58166876 783.91965524 1139.59387684 766.14340401 C1139.59471159 764.92958279 1139.59471159 764.92958279 1139.59556321 763.69123993 C1139.62250686 724.3916566 1139.63849575 685.09206985 1139.65356445 645.79248047 C1139.65879537 632.16605628 1139.66407491 618.5396321 1139.66955566 604.91320801 C1139.67006551 603.64542421 1139.67006551 603.64542421 1139.67058566 602.35202862 C1139.6864733 563.01190877 1139.71017706 523.67179473 1139.73587859 484.33168021 C1139.73754838 481.77558314 1139.73921482 479.21948607 1139.74088058 476.663389 C1139.75192561 459.72304728 1139.76310495 442.78270565 1139.7743742 425.84236408 C1139.79679325 392.13944927 1139.8184235 358.43653398 1139.83951129 324.73361832 C1139.8405154 323.12884058 1139.84152006 321.52406285 1139.84252527 319.91928511 C1139.87346576 270.51926101 1139.90084873 221.11923591 1139.92448425 171.71920776 C1139.92543908 169.72780077 1139.92639393 167.73639378 1139.92734906 165.74498679 C1139.95373712 110.49665883 1139.97638302 55.24832919 1140 0 C1228.44 0 1316.88 0 1408 0 C1408 587.07 1408 1174.14 1408 1779 C1320.55 1779 1233.1 1779 1143 1779 C1142.67 1725.21 1142.34 1671.42 1142 1616 C1134.41 1623.59 1126.82 1631.18 1119 1639 C1116.36 1641.31 1113.72 1643.62 1111 1646 C1109.22429779 1647.61967817 1107.45291693 1649.24411718 1105.6875 1650.875 C1100.28508543 1655.7957178 1094.69831141 1660.42792553 1089 1665 C1087.87979484 1665.91225289 1086.76002295 1666.82503803 1085.640625 1667.73828125 C1060.37177336 1688.27246081 1033.26167798 1706.82296833 1005 1723 C1004.28086426 1723.41330566 1003.56172852 1723.82661133 1002.82080078 1724.25244141 C997.58822362 1727.24535729 992.30739211 1730.14217348 987 1733 C986.09217773 1733.49081055 985.18435547 1733.98162109 984.24902344 1734.48730469 C911.12231955 1773.83305049 829.28039662 1797.63722292 723 1808 C721.80866455 1808.0942627 720.6173291 1808.18852539 719.38989258 1808.28564453 C704.47087354 1809.33884042 689.51130349 1809.24585206 674.5625 1809.25 C673.83228889 1809.25044186 673.10207779 1809.25088371 672.34973907 1809.25133896 C647.45999038 1809.25921899 622.77101132 1808.60361063 598 1806 C597.17914917 1805.91514343 596.35829834 1805.83028687 595.51257324 1805.74285889 C558.78858722 1801.91992159 522.72251453 1795.30313614 487 1786 C485.92105469 1785.72220703 484.84210938 1785.44441406 483.73046875 1785.15820312 C425.29027809 1769.97266438 368.64814793 1746.24817809 317 1715 C315.38307784 1714.03341017 313.76590276 1713.06724324 312.1484375 1712.1015625 C291.36341871 1699.62081793 271.49377724 1685.77038117 252.40625 1670.828125 C250.15373394 1668.99978924 250.15373394 1668.99978924 248 1668 C248 1667.34 248 1666.68 248 1666 C247.47921875 1665.773125 246.9584375 1665.54625 246.421875 1665.3125 C243.12315465 1663.52480639 240.21542579 1661.28109676 237.25 1659 C236.64800781 1658.54882812 236.04601562 1658.09765625 235.42578125 1657.6328125 C233.91093644 1656.47177498 232.45030179 1655.24072061 231 1654 C231 1653.34 231 1652.68 231 1652 C230.40993164 1651.7321167 229.81986328 1651.4642334 229.21191406 1651.18823242 C226.97815542 1649.98826517 225.43726575 1648.73387987 223.609375 1646.98828125 C222.98160156 1646.39466797 222.35382813 1645.80105469 221.70703125 1645.18945312 C220.73830078 1644.26036133 220.73830078 1644.26036133 219.75 1643.3125 C215.98400681 1639.72749013 212.22304744 1636.1676334 208.26953125 1632.7890625 C203.12182357 1628.31973976 198.33510619 1623.48478953 193.52709961 1618.6574707 C191.94040054 1617.06541034 190.34842258 1615.4787701 188.75585938 1613.89257812 C183.29242678 1608.43271494 178.02031241 1602.87331523 173 1597 C171.38032183 1595.22429779 169.75588282 1593.45291693 168.125 1591.6875 C163.20439629 1586.28521069 158.57017234 1580.69971087 154 1575 C153.06412788 1573.84478807 152.12791311 1572.68985367 151.19140625 1571.53515625 C139.81946424 1557.47118786 129.05376739 1543.03607436 119 1528 C118.26426758 1526.90341064 118.26426758 1526.90341064 117.51367188 1525.78466797 C71.12583571 1456.36583396 38.57569411 1379.00486587 2.25 1182.875 C2.16111511 1181.8163121 2.16111511 1181.8163121 2.07043457 1180.73623657 C0.5272496 1162.01396623 -0.15164045 1143.31615891 -0.12304783 1124.53410625 C-0.12378972 1122.55691555 -0.12497068 1120.57972496 -0.12654433 1118.60253474 C-0.12958393 1113.21068889 -0.12646302 1107.81886219 -0.12226619 1102.42701778 C-0.11880773 1096.54566655 -0.12120738 1090.6643171 -0.12284368 1084.78296548 C-0.12491056 1074.4892544 -0.1233184 1064.19554867 -0.11920547 1053.9018383 C-0.11481565 1042.86625354 -0.11263424 1031.83067157 -0.11310768 1020.79508591 C-0.11313637 1020.09610111 -0.11316507 1019.39711631 -0.11319463 1018.67695016 C-0.11335102 1015.11234863 -0.11354297 1011.5477471 -0.11374746 1007.98314558 C-0.1151522 982.23220835 -0.11173374 956.48127361 -0.10573006 930.73033714 C-0.09980136 905.23995133 -0.09595372 879.74956657 -0.09487724 854.25918007 C-0.09484283 853.46663883 -0.09480842 852.67409759 -0.09477296 851.85753994 C-0.09445975 844.61856668 -0.09417206 837.37959342 -0.09391499 830.14062016 C-0.09327571 812.14783821 -0.09231646 794.15505628 -0.09113979 776.16227436 C-0.09108648 775.34305317 -0.09103316 774.52383199 -0.09097823 773.67978592 C-0.08835866 733.85952159 -0.08205191 694.03925797 -0.07543945 654.21899414 C-0.07314773 640.4058431 -0.07087234 626.59269207 -0.06866455 612.77954102 C-0.0685276 611.92281177 -0.06839065 611.06608252 -0.06824955 610.18339179 C-0.06190181 570.33292999 -0.0581787 530.48246807 -0.05512976 490.6320059 C-0.05493169 488.04389109 -0.0547325 485.45577628 -0.05453308 482.86766147 C-0.05321326 465.71564057 -0.05193862 448.56361968 -0.05069422 431.41159878 C-0.04821792 397.28529397 -0.04547624 363.15898919 -0.04255217 329.03268442 C-0.04241293 327.40761526 -0.04227388 325.7825461 -0.04213501 324.15747694 C-0.03785777 274.1165557 -0.03238325 224.07563471 -0.02565002 174.03471375 C-0.02537919 172.01681115 -0.02510836 169.99890855 -0.02483763 167.98100595 C-0.01728812 111.98733719 -0.00848083 55.99366862 0 0 Z " fill="#000000" transform="translate(28,28)"/>
<path d="M0 0 C85.14 0 170.28 0 258 0 C258.33 212.85 258.66 425.7 259 645 C265.27 638.73 271.54 632.46 278 626 C280.64 623.69 283.28 621.38 286 619 C287.77570221 617.38032183 289.54708307 615.75588282 291.3125 614.125 C295.74496474 610.08720678 300.27742177 606.22692566 304.9453125 602.46484375 C307.1831158 600.65914825 309.40481899 598.84020688 311.6171875 597.00390625 C320.73283732 589.46640617 330.1141558 582.41225381 339.76953125 575.58203125 C341.93744991 574.04436565 344.09479881 572.49292349 346.25 570.9375 C356.56882684 563.52313391 367.18138317 556.66039178 378 550 C378.93779297 549.41919678 378.93779297 549.41919678 379.89453125 548.82666016 C459.03086918 499.9367219 548.42287309 469.05876563 878.77819824 472.45196533 C927.70674363 484.13773255 974.70900196 501.15941101 1020 523 C1020.98145996 523.47147461 1021.96291992 523.94294922 1022.97412109 524.42871094 C1070.67788568 547.45924179 1115.67857691 576.96307673 1155.9296875 611.3984375 C1158.67734045 613.74257701 1161.48800228 615.99883316 1164.3125 618.25 C1170.51898667 623.29842502 1176.2791323 628.80051067 1182.08203125 634.30078125 C1185.38930154 637.43520606 1188.74466768 640.50711284 1192.125 643.5625 C1200.85328244 651.54060264 1209.46273183 659.78837535 1217.10546875 668.82421875 C1219.23177304 671.26618059 1221.43777172 673.621031 1223.65454102 675.98071289 C1228.90737691 681.57345132 1233.96240567 687.23790781 1238.76171875 693.23046875 C1240.81230557 695.7677568 1242.9082705 698.25379152 1245.03027344 700.73095703 C1255.76354727 713.27048965 1265.43467629 726.56007495 1275 740 C1275.4110498 740.57717773 1275.82209961 741.15435547 1276.24560547 741.74902344 C1312.94376254 793.49262886 1340.86587987 850.32739612 1362 910 C1362.22774109 910.64030151 1362.45548218 911.28060303 1362.69012451 911.94030762 C1379.24421582 958.61095197 1389.14696591 1007.57034749 1394.73571777 1056.69213867 C1394.98531872 1058.87179483 1395.24433372 1061.05014599 1395.50488281 1063.22851562 C1400.89616238 1109.27827209 1400.79497242 1158.86384645 1395.25323486 1204.88995361 C1394.98751931 1207.10399372 1394.7332423 1209.31917083 1394.47998047 1211.53466797 C1385.21158496 1291.59506204 1361.41924053 1368.53471386 1310.44189453 1468.53808594 C1309.1107033 1470.81098339 1307.79981897 1473.0940854 1306.49609375 1475.3828125 C1288.28611341 1507.14397239 1266.77752556 1537.50440194 1242.97314453 1565.32592773 C1240.18539904 1568.58423517 1237.48120598 1571.8925957 1234.8125 1575.25 C1228.96701157 1582.42684523 1222.52142045 1589.04639862 1216.13916016 1595.74316406 C1213.9991855 1598.0008593 1211.87781395 1600.27461083 1209.76171875 1602.5546875 C1203.4682327 1609.32604781 1197.21791047 1615.96063212 1190.23046875 1622.0234375 C1187.84541291 1624.13698961 1185.61102028 1626.35481303 1183.375 1628.625 C1179.41017897 1632.63119307 1175.28729664 1636.34466669 1171 1640 C1169.98255917 1640.8809174 1168.96567721 1641.76248052 1167.94921875 1642.64453125 C1140.02263613 1666.82086875 1110.38136835 1688.51865775 1079 1708 C1078.33226563 1708.41556152 1077.66453125 1708.83112305 1076.9765625 1709.25927734 C1072.69268552 1711.91256918 1068.36199471 1714.4774243 1064 1717 C1063.14728516 1717.4940332 1062.29457031 1717.98806641 1061.41601562 1718.49707031 C990.3722505 1759.4462467 912.71083842 1786.79517007 786.0625 1806.25 C784.82567978 1806.37476212 784.82567978 1806.37476212 783.56387329 1806.50204468 C761.96402488 1808.65372781 740.51942809 1809.24366471 718.8125 1809.25 C718.11718422 1809.25044186 717.42186844 1809.25088371 716.70548248 1809.25133896 C693.35684618 1809.2590981 670.21581904 1808.64993351 647 1806 C645.86507111 1805.87271515 645.86507111 1805.87271515 644.70721436 1805.74285889 C578.58735927 1798.27913943 513.84027691 1781.03010524 453 1754 C451.88689453 1753.50661133 450.77378906 1753.01322266 449.62695312 1752.50488281 C395.2438308 1728.2294731 344.38123344 1696.35475791 299.1015625 1657.62890625 C296.175514 1655.1327295 293.18643248 1652.72073366 290.1875 1650.3125 C286.16412114 1647.04131806 282.48414517 1643.59719896 278.875 1639.87890625 C277.08762741 1638.08780997 275.24171837 1636.44831641 273.3125 1634.8125 C267.28575277 1629.48450608 261.68811047 1623.68811047 256 1618 C255.67 1671.13 255.34 1724.26 255 1779 C191.29887478 1779.04033135 191.29887478 1779.04033135 164.75976562 1779.04882812 C158.68465167 1779.05078614 152.60953773 1779.05280666 146.53442383 1779.05493164 C145.77295809 1779.05519539 145.01149235 1779.05545914 144.2269519 1779.05573088 C131.91749185 1779.06008573 119.60803645 1779.06797259 107.29857916 1779.0771528 C94.6752061 1779.08648893 82.05183548 1779.09205552 69.42845911 1779.09408849 C61.63285851 1779.09546381 53.83727104 1779.09981484 46.04167449 1779.10791647 C40.07413838 1779.11380411 34.10661368 1779.11445907 28.13907433 1779.11310768 C25.68356876 1779.11338421 23.22806273 1779.11539195 20.77256012 1779.11920547 C17.43604689 1779.12413578 14.09959117 1779.12300075 10.76307678 1779.12025452 C9.77768876 1779.12316736 8.79230073 1779.1260802 7.77705246 1779.12908131 C6.44689217 1779.12609474 6.44689217 1779.12609474 5.08985996 1779.12304783 C4.31864797 1779.12342755 3.54743598 1779.12380727 2.75285393 1779.1241985 C1 1779 1 1779 0 1778 C-0.0976654 1776.40176807 -0.12478374 1774.79919161 -0.12467116 1773.19797837 C-0.12702406 1772.14910941 -0.12937696 1771.10024045 -0.13180115 1770.01958758 C-0.12929228 1768.84994412 -0.1267834 1767.68030066 -0.1241985 1766.47521347 C-0.12547658 1765.2392436 -0.12675467 1764.00327374 -0.12807148 1762.72985024 C-0.1306275 1759.26218418 -0.12864102 1755.79457202 -0.12483745 1752.32691044 C-0.12179296 1748.55427843 -0.12452688 1744.78165006 -0.12654433 1741.00901797 C-0.12928992 1734.35915503 -0.12827552 1727.70930063 -0.12488318 1721.0594381 C-0.11982452 1711.1043418 -0.1205064 1701.14925166 -0.12234976 1691.19415454 C-0.12532236 1674.23187241 -0.12353478 1657.26959371 -0.11920547 1640.30731201 C-0.11483459 1623.10658288 -0.11263205 1605.90585552 -0.11310768 1588.70512581 C-0.11315072 1587.07837055 -0.11315072 1587.07837055 -0.11319463 1585.41875155 C-0.11335099 1579.8893263 -0.11354294 1574.35990104 -0.11374746 1568.83047579 C-0.11515673 1528.75895621 -0.111718 1488.68743821 -0.10573006 1448.61591911 C-0.09981225 1408.91911753 -0.0959559 1369.22231662 -0.09487724 1329.5255146 C-0.09484283 1328.29373836 -0.09480842 1327.06196212 -0.09477296 1325.79285933 C-0.09445978 1314.54286339 -0.09417208 1303.29286745 -0.09391499 1292.0428715 C-0.09327551 1264.07374733 -0.09231613 1236.10462316 -0.09113979 1208.135499 C-0.09108648 1206.86169552 -0.09103316 1205.58789203 -0.09097823 1204.27548844 C-0.08838363 1142.94822413 -0.08219066 1081.62096022 -0.07565394 1020.29369623 C-0.073289 998.10182369 -0.0709407 975.90995116 -0.06866455 953.71807861 C-0.06859605 953.05077204 -0.06852755 952.38346546 -0.06845698 951.69593747 C-0.06195803 888.33116317 -0.05814638 824.96638879 -0.05503077 761.60161424 C-0.05489862 758.91810323 -0.0547657 756.23459221 -0.05463275 753.5510812 C-0.053278 726.20569851 -0.05196995 698.86031582 -0.05069422 671.51493312 C-0.04821757 618.43650667 -0.04547588 565.35808023 -0.04255217 512.27965379 C-0.04241293 509.7517885 -0.04227388 507.2239232 -0.04213501 504.69605791 C-0.03588007 390.86369659 -0.02654156 277.03133559 -0.01586914 163.19897461 C-0.01576921 162.13285042 -0.01566927 161.06672623 -0.01556631 159.96829525 C-0.01409252 144.2532267 -0.01260585 128.53815815 -0.0111084 112.8230896 C-0.01102053 111.90042391 -0.01093266 110.97775822 -0.01084213 110.02713296 C-0.0073477 73.35142196 -0.00365661 36.67571098 0 0 Z M556 707 C555.00291016 707.32661621 554.00582031 707.65323242 552.97851562 707.98974609 C509.62572221 722.33462832 468.34738372 744.43940372 432 772 C431.37448242 772.4738916 430.74896484 772.9477832 430.10449219 773.43603516 C423.54060147 778.44034544 417.15441753 783.64366731 410.875 789 C410.36163086 789.43771729 409.84826172 789.87543457 409.31933594 790.32641602 C399.49030585 798.80889942 390.08529887 807.72798931 380.90795898 816.90673828 C379.30795481 818.50453893 377.70006385 820.09411551 376.09179688 821.68359375 C369.60732103 828.13335938 363.69764813 834.83329491 358 842 C357.07686561 843.09003468 356.14724292 844.17466065 355.20703125 845.25 C300.07396747 908.56758059 266.29923964 992.17230022 256 1075 C255.85191895 1076.11938965 255.70383789 1077.2387793 255.55126953 1078.39208984 C253.21163187 1096.5777987 252.71227397 1114.61831821 252.6875 1132.9375 C252.68391479 1133.99621307 252.68032959 1135.05492615 252.67663574 1136.14572144 C252.63965728 1156.42899993 253.75811232 1176.6732369 256.75 1196.75 C256.91846436 1197.89645996 257.08692871 1199.04291992 257.26049805 1200.22412109 C269.6351095 1281.41700606 303.12456648 1361.1211102 357.515625 1423.24462891 C358.62133139 1424.55219946 359.69455188 1425.88737529 360.75 1427.23583984 C367.31140386 1435.55476259 374.66809875 1442.97236211 382.17382812 1450.43457031 C384.3708284 1452.62084876 386.55692678 1454.81761938 388.7421875 1457.015625 C396.1930282 1464.47348369 403.69460718 1471.49579852 412 1478 C413.10257104 1478.9339032 414.19886115 1479.87533907 415.28515625 1480.828125 C485.90551501 1542.40987244 583.02086396 1578.06407752 732.10546875 1581.53125 C829.16218882 1574.74271438 922.87070989 1533.49092709 994.6328125 1468.1484375 C996.15704686 1466.76505648 997.69274506 1465.39414979 999.2421875 1464.0390625 C1004.93028593 1459.04043055 1010.32441773 1453.78152945 1015.6875 1448.4375 C1016.40043213 1447.72916016 1017.11336426 1447.02082031 1017.84790039 1446.29101562 C1022.43603756 1441.68955169 1026.77279086 1436.93332864 1031 1432 C1031.98505822 1430.8705537 1032.9707087 1429.7416236 1033.95703125 1428.61328125 C1040.60120498 1420.95512343 1046.95453999 1413.14072425 1053 1405 C1053.49612793 1404.33516602 1053.99225586 1403.67033203 1054.50341797 1402.98535156 C1067.75848741 1385.15689559 1079.22165583 1366.41153862 1090 1347 C1090.42490723 1346.24348145 1090.84981445 1345.48696289 1091.28759766 1344.70751953 C1123.86050606 1286.44293942 1142.93717191 1215.87789946 1143.203125 1149.1328125 C1143.21013931 1147.9473735 1143.21715363 1146.76193451 1143.22438049 1145.54057312 C1143.2417868 1141.73534296 1143.24823305 1137.93026851 1143.25 1134.125 C1143.25067474 1132.82388275 1143.25134949 1131.5227655 1143.25204468 1130.18222046 C1143.23616423 1110.91982504 1142.75982616 1092.08789212 1140 1073 C1139.75056641 1071.15656006 1139.75056641 1071.15656006 1139.49609375 1069.27587891 C1134.02875022 1029.35920875 1123.23226892 989.91960944 1107 953 C1106.57283691 952.02514648 1106.14567383 951.05029297 1105.70556641 950.04589844 C1087.40028571 908.6251903 1063.50090908 871.28609591 1034 837 C1033.39800781 836.29617188 1032.79601563 835.59234375 1032.17578125 834.8671875 C1020.03851389 820.81969646 1007.2464964 806.93695509 993 795 C991.8988073 794.04795226 990.7986431 793.09471428 989.69921875 792.140625 C988.50810614 791.11424247 987.31669858 790.08820213 986.125 789.0625 C985.26636353 788.31577026 985.26636353 788.31577026 984.39038086 787.55395508 C981.59048089 784.86401185 981.59048089 784.86401185 978 784 C978 783.34 978 782.68 978 782 C975.525 781.01 975.525 781.01 973 780 C973 779.34 973 778.68 973 778 C971.55400304 776.66617838 971.55400304 776.66617838 969.625 775.34765625 C968.89595459 774.82445801 968.16690918 774.30125977 967.41577148 773.76220703 C966.2199646 772.92085205 966.2199646 772.92085205 965 772.0625 C964.17765869 771.47839355 963.35531738 770.89428711 962.50805664 770.29248047 C960.812594 769.09120805 959.11473763 767.89330725 957.41455078 766.69873047 C955.30885768 765.2172934 953.21358459 763.72263196 951.12109375 762.22265625 C892.8351604 720.8454528 823.58796595 695.35907338 752.8125 686.75 C752.13088806 686.66682526 751.44927612 686.58365051 750.74700928 686.49795532 C733.86606629 684.46567307 717.17091815 683.76031141 700.1875 683.75 C699.18066162 683.74932526 698.17382324 683.74865051 697.13647461 683.74795532 C648.92318658 683.79887949 601.78835014 691.78278433 556 707 Z " fill="#000000" transform="translate(1633,28)"/>
<path d="M0 0 C1.37702421 0.00192786 2.75404855 0.00376793 4.131073 0.00552368 C27.24902337 0.04824314 50.19497028 0.81620258 73.1875 3.3125 C73.97525818 3.39735657 74.76301636 3.48221313 75.574646 3.56964111 C122.45243295 8.68045312 168.40375748 18.53814739 213.1875 33.3125 C214.27643555 33.66779785 215.36537109 34.0230957 216.48730469 34.38916016 C253.677697 46.59068851 290.30012472 62.65917562 324.1875 82.3125 C325.16412598 82.87759277 326.14075195 83.44268555 327.14697266 84.02490234 C358.16435644 102.07877365 387.79705055 122.3452268 415.08203125 145.6796875 C418.03170349 148.19588217 421.04220418 150.63142969 424.0625 153.0625 C427.74127274 156.05449751 431.15173153 159.14412517 434.43530273 162.5612793 C436.04820613 164.17328376 437.70586835 165.62677646 439.453125 167.08984375 C445.66778875 172.49228696 451.41343392 178.38972223 457.22387695 184.21850586 C459.24514268 186.2451298 461.27169574 188.26635547 463.29882812 190.28710938 C469.47374182 196.45850514 475.57062642 202.62142949 481.1875 209.3125 C482.23183407 210.50483449 483.27873225 211.6949278 484.328125 212.8828125 C491.04738407 220.5477846 497.50189259 228.35658532 503.72460938 236.42871094 C505.27537204 238.42565432 506.84673299 240.40505155 508.421875 242.3828125 C521.2846308 258.60251015 533.24583308 275.53606394 543.94824219 293.26220703 C545.30226284 295.50236964 546.67071521 297.73340615 548.0390625 299.96484375 C554.92285506 311.25184347 561.38905541 322.73723689 567.6237793 334.39453125 C568.76612739 336.52620095 569.91725561 338.65317205 571.07348633 340.77734375 C575.85772528 349.59747068 580.24471803 358.54392732 584.375 367.6875 C584.69320709 368.39014984 585.01141418 369.09279968 585.33926392 369.81674194 C616.57465658 438.99083682 636.12142352 512.77798415 644.4375 588.1875 C644.51481354 588.87832672 644.59212708 589.56915344 644.67178345 590.28091431 C650.82788713 646.20927145 648.1875 701.90542916 648.1875 758.3125 C300.6975 758.6425 -46.7925 758.9725 -404.8125 759.3125 C-396.61749412 798.92169509 -386.39654003 835.64996753 -369.8125 872.3125 C-369.41708008 873.19969727 -369.02166016 874.08689453 -368.61425781 875.00097656 C-351.18360941 914.00070623 -326.34710347 951.14120365 -297.3671875 982.51171875 C-295.39467465 984.67424431 -293.47535425 986.86067124 -291.56640625 989.078125 C-287.52856824 993.70626789 -283.22759124 998.0444472 -278.875 1002.375 C-278.11509766 1003.13876953 -277.35519531 1003.90253906 -276.57226562 1004.68945312 C-271.81519688 1009.43839707 -266.91377042 1013.93796006 -261.8125 1018.3125 C-260.76428437 1019.23806727 -259.71733221 1020.16506814 -258.671875 1021.09375 C-230.99533669 1045.41501843 -199.65493013 1064.81466046 -166.8125 1081.3125 C-166.00490234 1081.72097168 -165.19730469 1082.12944336 -164.36523438 1082.55029297 C-76.68825106 1126.59191159 25.41615807 1133.44365177 174.1875 1101.3125 C226.09000191 1083.78421053 273.30589834 1056.4930454 315.1875 1021.3125 C315.9928418 1020.64250977 315.9928418 1020.64250977 316.81445312 1019.95898438 C323.92185663 1014.03748359 330.75700698 1007.97274266 337.19311523 1001.32104492 C340.03236624 998.39598544 343.00580731 995.85259516 346.1875 993.3125 C347.30561528 992.1148857 348.39094229 990.88562634 349.4375 989.625 C352.06654368 986.54444665 354.80166869 983.65416042 357.6875 980.8125 C361.73570141 976.80518951 365.50056302 972.65139535 369.1875 968.3125 C369.98671875 967.39082031 370.7859375 966.46914062 371.609375 965.51953125 C379.92699166 955.87507491 388.11798261 945.91677608 395.1875 935.3125 C398.41781416 935.9249988 400.44886227 937.01094341 403.06640625 938.98046875 C403.81301514 939.53686035 404.55962402 940.09325195 405.32885742 940.66650391 C406.12783447 941.27155762 406.92681152 941.87661133 407.75 942.5 C409.46600021 943.78274691 411.18215026 945.0652934 412.8984375 946.34765625 C413.7759668 947.00652832 414.65349609 947.66540039 415.55761719 948.34423828 C419.64362159 951.40229319 423.7607518 954.41762408 427.875 957.4375 C434.3223255 962.18245288 440.73888172 966.96628299 447.13623047 971.77832031 C454.6395678 977.41559086 462.20280541 982.97121279 469.76416016 988.53027344 C473.74072518 991.45480746 477.71396271 994.38385433 481.6875 997.3125 C483.27081696 998.47918888 484.85415031 999.64585553 486.4375 1000.8125 C489.60416667 1003.14583333 492.77083333 1005.47916667 495.9375 1007.8125 C496.72116943 1008.38991943 497.50483887 1008.96733887 498.31225586 1009.56225586 C499.89648481 1010.72962531 501.48063188 1011.89710588 503.06469727 1013.06469727 C507.0086657 1015.97152557 510.95401162 1018.8764448 514.90234375 1021.77734375 C523.02721894 1027.74993412 531.12681471 1033.75349289 539.1875 1039.8125 C553.3941984 1050.48862971 567.68320781 1061.04355577 582.1875 1071.3125 C580.73095369 1075.62642404 578.4266888 1078.91058708 575.625 1082.4375 C575.17954834 1083.00662109 574.73409668 1083.57574219 574.27514648 1084.16210938 C564.41816568 1096.70576858 554.20474905 1109.01209111 543.453125 1120.80078125 C541.57398783 1122.88403159 539.72674811 1124.98789884 537.88671875 1127.10546875 C528.88649524 1137.40876705 519.34008396 1147.24713461 509.6875 1156.9375 C509.05400635 1157.57558594 508.4205127 1158.21367188 507.76782227 1158.87109375 C504.01468605 1162.61192461 500.13904368 1166.15209309 496.12939453 1169.61572266 C493.13837092 1172.22920192 490.26396063 1174.96244315 487.375 1177.6875 C482.38339254 1182.35808016 477.28506213 1186.80867477 471.9453125 1191.08203125 C469.46011825 1193.0920113 467.0293371 1195.15407094 464.60888672 1197.24121094 C456.75587806 1203.99551338 448.53723349 1210.18897528 440.1875 1216.3125 C439.50091309 1216.82006836 438.81432617 1217.32763672 438.10693359 1217.85058594 C411.26591273 1237.67953866 383.08662476 1255.30330971 353.64355469 1270.99853516 C351.3823251 1272.20827051 349.13119159 1273.43456322 346.8828125 1274.66796875 C275.15255046 1313.76554264 193.02703934 1335.77347194 39.1875 1350.3125 C37.41753662 1350.34537109 37.41753662 1350.34537109 35.61181641 1350.37890625 C-47.60712481 1351.69064577 -130.25387153 1339.37207541 -334.8125 1257.3125 C-336.71456054 1256.20784554 -338.61690732 1255.10368381 -340.51953125 1254 C-357.8629387 1243.89391265 -374.51698742 1233.02728546 -390.8125 1221.3125 C-392.39417969 1220.17941406 -392.39417969 1220.17941406 -394.0078125 1219.0234375 C-399.71035253 1214.90934874 -405.28693816 1210.66019913 -410.8125 1206.3125 C-411.87196683 1205.4916335 -412.93189556 1204.67136295 -413.9921875 1203.8515625 C-420.73055877 1198.62384448 -427.30697919 1193.25417448 -433.75244141 1187.66894531 C-438.22743406 1183.79340651 -442.7863395 1180.04528475 -447.41015625 1176.34765625 C-450.02812593 1174.12983153 -452.41620983 1171.76704682 -454.8125 1169.3125 C-459.39730611 1164.5971984 -459.39730611 1164.5971984 -464.375 1160.3125 C-466.48548785 1158.58081767 -468.02014178 1156.95889656 -469.75 1154.875 C-471.6729384 1152.55962519 -473.40288343 1150.82260737 -475.75 1148.875 C-478.88865751 1146.24877637 -481.38241678 1143.45571855 -484.02734375 1140.3515625 C-485.72042616 1138.41766968 -487.47723328 1136.61081504 -489.3125 1134.8125 C-492.35852998 1131.81395824 -495.18353501 1128.67847745 -497.96875 1125.4375 C-499.30327552 1123.89940279 -500.66049537 1122.38089945 -502.03125 1120.875 C-502.7634375 1120.070625 -503.495625 1119.26625 -504.25 1118.4375 C-504.92933594 1117.69757813 -505.60867187 1116.95765625 -506.30859375 1116.1953125 C-507.8125 1114.3125 -507.8125 1114.3125 -507.8125 1112.3125 C-508.4725 1112.3125 -509.1325 1112.3125 -509.8125 1112.3125 C-511.48035894 1110.39137359 -513.02728152 1108.46156866 -514.5625 1106.4375 C-515.55981274 1105.14316514 -516.55721274 1103.84889751 -517.5546875 1102.5546875 C-518.08416992 1101.86342773 -518.61365234 1101.17216797 -519.15917969 1100.45996094 C-520.82379755 1098.29782586 -522.50644223 1096.15104398 -524.1953125 1094.0078125 C-542.35134748 1070.93734281 -559.18859768 1046.79207088 -573.8125 1021.3125 C-574.29106445 1020.48250488 -574.76962891 1019.65250977 -575.26269531 1018.79736328 C-579.17170322 1012.00164793 -583.01590348 1005.17162204 -586.8125 998.3125 C-587.27914062 997.47009766 -587.74578125 996.62769531 -588.2265625 995.75976562 C-624.91469425 928.98092933 -647.67824436 853.5616661 -663.8125 734.3125 C-663.87308594 733.63088806 -663.93367188 732.94927612 -663.99609375 732.24700928 C-667.38151961 693.58850228 -667.43850961 653.9472383 -663.8125 615.3125 C-663.71775391 614.28618469 -663.71775391 614.28618469 -663.62109375 613.23913574 C-656.55807168 537.14286302 -637.99183085 462.50992715 -596.8125 372.3125 C-596.15386963 370.93747314 -596.15386963 370.93747314 -595.48193359 369.53466797 C-582.94378062 343.47507341 -568.22171703 318.12706944 -551.8125 294.3125 C-551.00061678 293.11244252 -550.18946897 291.91188729 -549.37890625 290.7109375 C-536.61702761 271.88050618 -523.06504011 253.56111754 -508.1628418 236.36572266 C-505.0359254 232.75723151 -501.99386514 229.09572884 -499 225.375 C-496.03934162 221.72618859 -492.98127686 218.3473672 -489.59376526 215.0947113 C-487.81703818 213.31704059 -486.18383022 211.47240477 -484.55053711 209.56274414 C-481.05943816 205.54702319 -477.39654457 201.75136857 -473.62890625 197.99609375 C-472.96970688 197.33593765 -472.31050751 196.67578156 -471.6313324 195.99562073 C-470.24853165 194.61214494 -468.86448924 193.22990917 -467.47924805 191.84887695 C-465.38019657 189.75518331 -463.2865406 187.65620126 -461.19335938 185.55664062 C-459.83886214 184.20280429 -458.48405469 182.84927825 -457.12890625 181.49609375 C-456.51406876 180.87923203 -455.89923126 180.2623703 -455.26576233 179.6268158 C-451.48835226 175.8693356 -447.5917348 172.29976755 -443.55743408 168.81932068 C-441.33403512 166.89932636 -439.16809783 164.9195439 -437 162.9375 C-432.73504692 159.09321755 -428.3638915 155.41723095 -423.8984375 151.80859375 C-421.66310183 150.00051844 -419.44061795 148.18137237 -417.2265625 146.34765625 C-382.38853426 117.58113274 -343.79707613 93.23569283 -303.8125 72.3125 C-302.92062988 71.84392578 -302.02875977 71.37535156 -301.10986328 70.89257812 C-266.38416922 52.76140663 -229.35050023 38.44384715 -191.8125 27.3125 C-190.73000977 26.98975098 -189.64751953 26.66700195 -188.53222656 26.33447266 C-152.52636069 15.71682792 -115.57929736 8.50293096 -78.3125 4.125 C-77.01038574 3.96999023 -75.70827148 3.81498047 -74.36669922 3.65527344 C-49.63950846 0.83657181 -24.87154376 -0.06981499 0 0 Z M-294.8125 350.3125 C-297.22431229 352.91764394 -299.52052588 355.60203379 -301.8125 358.3125 C-302.65683594 359.26769531 -303.50117188 360.22289062 -304.37109375 361.20703125 C-324.23247444 383.75941773 -341.43200091 408.94487121 -355.8125 435.3125 C-356.57143555 436.69695312 -356.57143555 436.69695312 -357.34570312 438.109375 C-377.32987437 474.8239156 -391.42353006 513.62696359 -400.8125 554.3125 C-140.4425 554.3125 119.9275 554.3125 388.1875 554.3125 C386.68466881 544.87675249 386.68466881 544.87675249 384.48828125 535.75390625 C384.01104614 534.07929321 384.01104614 534.07929321 383.52416992 532.37084961 C383.18619385 531.21721924 382.84821777 530.06358887 382.5 528.875 C382.14333252 527.6485376 381.78666504 526.4220752 381.41918945 525.15844727 C360.65069383 454.39052516 324.47808846 390.40901595 272.21899414 338.15869141 C270.72187785 336.65933579 269.23301126 335.15207035 267.74414062 333.64453125 C266.78954938 332.68701436 265.83448962 331.72996427 264.87890625 330.7734375 C263.59802124 329.48638916 263.59802124 329.48638916 262.29125977 328.17333984 C260.40593276 326.09165392 260.40593276 326.09165392 258.1875 326.3125 C257.8575 325.3225 257.5275 324.3325 257.1875 323.3125 C255.18503904 321.40262281 255.18503904 321.40262281 252.625 319.4375 C251.62339844 318.64085937 250.62179687 317.84421875 249.58984375 317.0234375 C248.76589111 316.37133301 248.76589111 316.37133301 247.92529297 315.70605469 C246.11841205 314.25709764 244.34075106 312.77764788 242.56640625 311.2890625 C227.1408439 298.40843166 210.47889562 287.51194063 193.1875 277.3125 C192.54844727 276.93174316 191.90939453 276.55098633 191.25097656 276.15869141 C102.6561665 223.61775465 -6.84776031 211.8387771 -294.8125 350.3125 Z " fill="#000000" transform="translate(3797.8125,484.6875)"/>
<path d="M0 0 C0 79.2 0 158.4 0 240 C-61.8125 240.3125 -61.8125 240.3125 -81.15942383 240.38793945 C-87.0015004 240.42460429 -87.0015004 240.42460429 -92.84355164 240.4650116 C-95.39817137 240.48091248 -97.95282931 240.49136644 -100.50749207 240.49711609 C-172.62548669 240.68054335 -240.67854484 261.60194568 -294.5234375 310.74609375 C-296.20252205 312.2742196 -297.89580823 313.78685858 -299.6015625 315.28515625 C-304.04700214 319.20009781 -308.23027274 323.13592752 -312.04296875 327.671875 C-313.56297334 329.48010402 -315.10515743 331.25215589 -316.67578125 333.015625 C-364.83766325 387.46537459 -388.82860407 461.37471293 -394 533 C-394.08193334 534.02942732 -394.16386668 535.05885465 -394.24828285 536.11947674 C-395.23956265 550.24350688 -395.15485783 564.37604678 -395.1572054 578.52750508 C-395.15895203 582.41647933 -395.1664469 586.30544347 -395.17318195 590.1944117 C-395.18418453 596.99616667 -395.19158928 603.79791801 -395.19658089 610.59967995 C-395.2040197 620.71350801 -395.21711021 630.82732336 -395.23132664 640.94114389 C-395.25508733 657.95766724 -395.27431236 674.97419286 -395.29092598 691.99072456 C-395.30738346 708.83205031 -395.32587308 725.67337182 -395.34705925 742.51469231 C-395.34837686 743.56298824 -395.34969446 744.61128418 -395.351052 745.69134667 C-395.35775436 751.0154084 -395.36449285 756.3394701 -395.37124526 761.66353177 C-395.41897091 799.34493829 -395.46216664 837.02634877 -395.50268555 874.70776367 C-395.54205229 911.30802702 -395.58347888 947.90828709 -395.62768555 984.50854492 C-395.62904808 985.6373093 -395.63041061 986.76607368 -395.63181442 987.92904304 C-395.64550015 999.2648633 -395.65922765 1010.6006835 -395.67298577 1021.93650366 C-395.70101009 1045.02756933 -395.72875559 1068.11863533 -395.7563324 1091.20970154 C-395.7576006 1092.27132272 -395.7588688 1093.33294391 -395.76017542 1094.42673543 C-395.79902174 1126.95763046 -395.83668656 1159.4885267 -395.8731842 1192.01942444 C-395.8742206 1192.94276532 -395.87525699 1193.86610621 -395.87632478 1194.81742712 C-395.91827944 1232.21161728 -395.95898241 1269.60580881 -396 1307 C-480.81 1307 -565.62 1307 -653 1307 C-653 878.99 -653 450.98 -653 10 C-568.85 10 -484.7 10 -398 10 C-397.67 61.48 -397.34 112.96 -397 166 C-392.38 159.07 -387.76 152.14 -383 145 C-363.28136615 118.39844679 -341.16580677 93.28429086 -314.6484375 73.25878906 C-313.04918304 72.03755743 -311.47714123 70.78094386 -309.90625 69.5234375 C-300.75073851 62.24064427 -291.00771249 56.04380564 -281 50 C-279.75404053 49.24517334 -279.75404053 49.24517334 -278.48291016 48.47509766 C-236.50415563 23.24564708 -189.40393454 8.65830882 -140.9375 2.75 C-140.25856689 2.66682526 -139.57963379 2.58365051 -138.88012695 2.49795532 C-92.85200693 -3.05998068 -46.15576857 0 0 0 Z " fill="#000000" transform="translate(5241,500)"/>
</svg>
