<?xml version="1.0" encoding="UTF-8"?>
<svg version="1.1" xmlns="http://www.w3.org/2000/svg" width="1024" height="1024">
<path d="M0 0 C0.76054687 0.64710938 1.52109375 1.29421875 2.3046875 1.9609375 C22.10369427 19.04606172 36.19633083 43.57939454 38.22753906 69.95458984 C39.6300392 98.13249353 32.51709027 123.25318469 14 145 C13.03483837 145.97243672 12.05764368 146.93326798 11.0625 147.875 C8.65176231 149.86523377 8.65176231 149.86523377 9 153 C10.60677105 154.72448321 12.28731977 156.38065384 14 158 C14.96469805 159.02023927 15.92022499 160.04921551 16.8671875 161.0859375 C17.35735352 161.62114014 17.84751953 162.15634277 18.35253906 162.70776367 C18.85495117 163.25795166 19.35736328 163.80813965 19.875 164.375 C23.25508579 168.06799885 26.65394337 171.70152674 30.25 175.1875 C33 178 33 178 33 180 C33.66 180 34.32 180 35 180 C36.91015625 181.9765625 36.91015625 181.9765625 39.0625 184.625 C39.77535156 185.48351562 40.48820313 186.34203125 41.22265625 187.2265625 C43.21113244 190.32945941 43.89703366 192.32263061 44 196 C42.890625 198.265625 42.890625 198.265625 41.25 200.25 C40.71890625 200.91515625 40.1878125 201.5803125 39.640625 202.265625 C36.95493636 205.10478156 35.19773699 205.96983673 31.3125 206.5625 C25.71143449 206.43894708 22.71006365 202.81290123 19 199 C18.46761719 198.50242187 17.93523437 198.00484375 17.38671875 197.4921875 C16.20570031 196.38103212 15.09418165 195.19676118 14 194 C14 193.34 14 192.68 14 192 C13.34 192 12.68 192 12 192 C10.51953125 190.49609375 10.51953125 190.49609375 8.8125 188.4375 C5.81322507 184.89003826 2.66004868 181.63477128 -0.71484375 178.4453125 C-2 177 -2 177 -2 175 C-2.99 174.67 -3.98 174.34 -5 174 C-6.82421875 172.15234375 -6.82421875 172.15234375 -8.6875 169.9375 C-9.31011719 169.20402344 -9.93273437 168.47054687 -10.57421875 167.71484375 C-11.04472656 167.14894531 -11.51523438 166.58304688 -12 166 C-12.84820312 166.51949219 -13.69640625 167.03898438 -14.5703125 167.57421875 C-36.91260075 180.97444519 -62.48138724 185.03719513 -87.96191406 178.76831055 C-103.0941633 174.68608193 -116.14107159 167.16207209 -128 157 C-128.82242188 156.32324219 -129.64484375 155.64648438 -130.4921875 154.94921875 C-148.99123207 139.18757174 -160.80241311 115.99475534 -164 92 C-164.28149712 87.91176476 -164.33405812 83.84699459 -164.3125 79.75 C-164.30831055 78.65534424 -164.30412109 77.56068848 -164.29980469 76.43286133 C-164.18186076 67.94278079 -163.30925825 60.2028869 -161 52 C-160.74476563 51.01902344 -160.48953125 50.03804688 -160.2265625 49.02734375 C-156.33131341 35.75133425 -149.15956486 23.29991229 -140 13 C-139.39929688 12.2575 -138.79859375 11.515 -138.1796875 10.75 C-122.0023965 -8.74397409 -97.25000848 -19.9641759 -72.4375 -22.6875 C-46.90150642 -24.45085506 -19.19830926 -17.59175618 0 0 Z M-121.78125 27.1015625 C-137.31110907 45.8304347 -142.04809496 67.13192507 -140 91 C-139.67 91.33 -139.34 91.66 -139 92 C-138.938125 93.19625 -138.87625 94.3925 -138.8125 95.625 C-137.33934902 109.85790488 -128.39207261 125.43051889 -118 135 C-117.34 135 -116.68 135 -116 135 C-115.48953125 133.85724609 -115.48953125 133.85724609 -114.96875 132.69140625 C-108.08928284 118.03594563 -98.35832223 109.38762184 -83.125 103.5625 C-67.96646797 98.26414163 -50.48409513 100.08131743 -36.01953125 106.46875 C-23.43156459 112.85229842 -15.7595065 122.28108982 -10 135 C1.21736367 130.28473651 6.50789626 114.95354588 11.09765625 104.5 C17.85014707 86.58384345 15.81946971 65.11322986 8.23828125 47.85546875 C4.46393613 39.73740566 0.06092201 32.64346462 -6 26 C-6.51691406 25.3915625 -7.03382813 24.783125 -7.56640625 24.15625 C-14.23716703 16.80002258 -24.02088038 11.0246834 -33 7 C-33.99 7 -34.98 7 -36 7 C-36.99 6.01 -36.99 6.01 -38 5 C-40.3403621 4.2198793 -42.60953068 3.5830413 -45 3 C-46.01513672 2.71769531 -46.01513672 2.71769531 -47.05078125 2.4296875 C-74.4720815 -4.29539823 -103.46813667 6.13304774 -121.78125 27.1015625 Z " fill="#0B0B0B" transform="translate(237,374)"/>
<path d="M0 0 C5.7039886 4.62823637 10.04217356 10.31652094 11.1159668 17.76806641 C11.19500244 18.56132324 11.27403809 19.35458008 11.35546875 20.171875 C11.43756592 20.97447754 11.51966309 21.77708008 11.60424805 22.60400391 C11.66265869 23.21163574 11.72106934 23.81926758 11.78125 24.4453125 C8.84532392 24.86131018 5.90946726 25.2537269 2.96875 25.6328125 C1.71868164 25.81360352 1.71868164 25.81360352 0.44335938 25.99804688 C-0.35908203 26.09794922 -1.16152344 26.19785156 -1.98828125 26.30078125 C-2.72667236 26.40028076 -3.46506348 26.49978027 -4.22583008 26.60229492 C-6.21875 26.4453125 -6.21875 26.4453125 -7.90112305 25.16918945 C-9.21875 23.4453125 -9.21875 23.4453125 -10.53125 20.0078125 C-12.55558056 15.73422575 -13.98019033 14.48610049 -18.21875 12.4453125 C-25.51284593 10.60828093 -31.20862224 12.10860325 -38.21875 14.4453125 C-39.4253315 21.02853587 -39.4253315 21.02853587 -38.21875 27.4453125 C-34.25734389 29.31515531 -30.0259514 30.48036966 -25.84375 31.7578125 C-24.41903261 32.20105791 -22.99455914 32.64508803 -21.5703125 33.08984375 C-19.42789373 33.75821334 -17.28510683 34.42494416 -15.13964844 35.08349609 C-3.83281977 38.56944979 6.10166961 42.08226957 12.78125 52.4453125 C16.46134506 60.89309085 16.38206617 68.95063041 13.59375 77.6328125 C10.12783924 85.89767661 3.69244951 90.60225061 -4.16796875 94.3828125 C-16.61498696 99.31420257 -31.93790246 98.43009341 -44.06640625 93.22265625 C-52.03531676 88.90766549 -57.40049056 82.79559334 -60.15625 74.1328125 C-61.00081066 70.99226057 -61.21875 68.77028008 -61.21875 65.4453125 C-60.24292969 65.31253906 -59.26710938 65.17976563 -58.26171875 65.04296875 C-56.35326172 64.77806641 -56.35326172 64.77806641 -54.40625 64.5078125 C-52.50939453 64.24677734 -52.50939453 64.24677734 -50.57421875 63.98046875 C-47.23553297 63.54138795 -47.23553297 63.54138795 -44.21875 62.4453125 C-41.21875 63.4453125 -41.21875 63.4453125 -40.19140625 65.37109375 C-39.74087891 66.55251953 -39.74087891 66.55251953 -39.28125 67.7578125 C-37.26376035 72.55410866 -35.47379894 75.31778803 -30.71875 77.6953125 C-23.73850955 79.19107831 -16.82456395 79.9143367 -10.53125 76.0703125 C-8.41362041 74.57087292 -7.38407778 73.77596806 -6.21875 71.4453125 C-5.63361141 65.83101769 -5.63361141 65.83101769 -7.8515625 60.83984375 C-10.61429856 58.0451949 -12.6861128 57.16645953 -16.40625 55.9453125 C-17.64117188 55.5328125 -18.87609375 55.1203125 -20.1484375 54.6953125 C-23.68719498 53.58674432 -27.25061291 52.57545755 -30.82006836 51.57104492 C-42.47340294 48.27331979 -52.03739117 44.6094952 -58.31640625 33.50390625 C-61.50930555 26.15281251 -61.14136664 18.02205332 -58.3125 10.609375 C-53.62291864 1.33070331 -45.96423854 -2.50968311 -36.53125 -5.8671875 C-24.24479236 -8.45381016 -10.50084207 -7.18705175 0 0 Z " fill="#0C0C0C" transform="translate(581.21875,401.5546875)"/>
<path d="M0 0 C6.27 0 12.54 0 19 0 C19.33 11.55 19.66 23.1 20 35 C22.64 33.35 25.28 31.7 28 30 C36.393179 26.90777616 43.87151675 27.50748655 52 31 C60.72071333 36.17354215 66.6294425 43.82773142 69.46875 53.5625 C72.54451695 67.6748425 70.41753834 79.81696597 62.76171875 91.96484375 C58.30682814 97.97040425 51.41195096 102.13264892 44.01660156 103.31787109 C35.96817322 104.07110684 28.84274901 103.65306933 22 99 C21.34 98.34 20.68 97.68 20 97 C19.67 98.32 19.34 99.64 19 101 C12.73 101 6.46 101 0 101 C-0.59438209 92.38145972 -1.12588437 83.89994557 -0.9375 75.2578125 C-0.84196052 72.96416845 -0.84196052 72.96416845 -2 71 C-1.505 70.01 -1.505 70.01 -1 69 C-0.91339157 66.88628879 -0.89295357 64.76976087 -0.90234375 62.65429688 C-0.90380402 62.00372818 -0.90526428 61.35315948 -0.9067688 60.68287659 C-0.91057688 59.26909122 -0.91669564 57.85531064 -0.92483521 56.44154358 C-0.9375721 54.20609586 -0.94410748 51.97070729 -0.94897461 49.73522949 C-0.96041759 44.99012651 -0.97966005 40.2450721 -1 35.5 C-1.02356444 30.00269417 -1.04396979 24.50541627 -1.05593872 19.0080719 C-1.06243834 16.80217787 -1.07494652 14.59636874 -1.08764648 12.39050293 C-1.09127808 11.04223709 -1.09462993 9.69397046 -1.09765625 8.34570312 C-1.10551147 6.57604187 -1.10551147 6.57604187 -1.11352539 4.77062988 C-1 2 -1 2 0 0 Z M22.6875 51.3125 C18.42578416 58.09967707 17.84142358 65.56012168 19.5 73.34765625 C21.00526022 77.9233052 22.9021709 80.52224287 27 83 C32.09837411 85.43331492 36.61090524 85.31733427 42 84 C46.23013883 81.93193213 47.60786522 79.13669146 49.375 74.9375 C51.51702482 68.41564394 51.6516545 62.36393028 49.203125 55.89453125 C47.17595049 51.99803598 44.78543378 49.18713951 41 47 C33.90570866 45.06276413 28.06271387 45.93728613 22.6875 51.3125 Z " fill="#0B0B0B" transform="translate(446,395)"/>
<path d="M0 0 C2.08907477 0.05741571 4.17995307 0.06188351 6.26953125 0.02734375 C7.48165283 0.01380859 8.69377441 0.00027344 9.94262695 -0.01367188 C11.85821411 -0.0378418 11.85821411 -0.0378418 13.8125 -0.0625 C24.39320879 -0.14128902 34.57053987 0.16047317 45 2 C45 2.66 45 3.32 45 4 C47.65228812 5.07525194 50.28368454 6.09456151 53 7 C60.32728926 15.39307679 63.67292802 23.8397392 63.34765625 34.94140625 C62.42357061 43.07128333 59.39422969 50.70457168 53 56 C40.23424934 64.68473115 27.85115845 64.27445673 13 64 C13.03552979 64.96413818 13.07105957 65.92827637 13.10766602 66.92163086 C13.23768547 70.48656312 13.36096787 74.05170159 13.48217773 77.61694336 C13.5356662 79.1622559 13.59100068 80.70750567 13.64819336 82.25268555 C13.72991433 84.46910051 13.8050717 86.68565384 13.87890625 88.90234375 C13.90594131 89.5971434 13.93297638 90.29194305 13.96083069 91.00779724 C14.01301108 92.67109776 14.01185107 94.33592339 14 96 C12.38219843 97.61780157 10.54364482 97.22272147 8.30859375 97.31640625 C7.36435547 97.35830078 6.42011719 97.40019531 5.44726562 97.44335938 C4.45404297 97.48267578 3.46082031 97.52199219 2.4375 97.5625 C1.44041016 97.60568359 0.44332031 97.64886719 -0.58398438 97.69335938 C-3.0558415 97.79980298 -5.5278031 97.90181928 -8 98 C-9.13031906 93.48573608 -9.14113349 89.05576407 -9.12939453 84.43359375 C-9.13114685 83.58258087 -9.13289917 82.73156799 -9.13470459 81.85476685 C-9.13909647 79.04899033 -9.13619448 76.24327713 -9.1328125 73.4375 C-9.1334863 71.48364246 -9.13445697 69.52978499 -9.13571167 67.57592773 C-9.13718503 63.48387859 -9.13504567 59.39185129 -9.13037109 55.29980469 C-9.12467403 50.05749268 -9.12795497 44.81523188 -9.13394356 39.57292175 C-9.1375589 35.53918065 -9.13640609 31.50545167 -9.13381577 27.47171021 C-9.1331492 25.53882847 -9.1339655 23.60594563 -9.13629532 21.67306519 C-9.13883778 18.97081594 -9.13495872 16.26864935 -9.12939453 13.56640625 C-9.13141876 12.76937286 -9.13344299 11.97233948 -9.13552856 11.15115356 C-9.12089281 7.30984224 -8.93492903 3.73391594 -8 0 C-4.59889893 -1.13370036 -3.42941402 -0.71548035 0 0 Z M13 18 C13 27.24 13 36.48 13 46 C16.17625 46.0825 19.3525 46.165 22.625 46.25 C24.1092749 46.30462402 24.1092749 46.30462402 25.62353516 46.36035156 C31.43813249 46.43322503 34.55344455 45.81334344 39 42 C42.41912498 38.12499169 42.45805289 34.3324021 42.28125 29.3671875 C41.73412779 24.76224221 39.93511213 22.74612989 36.390625 19.91796875 C32.48709831 17.70986783 29.25250369 17.30526216 24.875 17.1875 C24.17246094 17.14947266 23.46992188 17.11144531 22.74609375 17.07226562 C19.19465387 16.91449845 16.4824594 17.12938515 13 18 Z " fill="#0B0B0B" transform="translate(308,521)"/>
<path d="M0 0 C1.42892578 0.12568359 1.42892578 0.12568359 2.88671875 0.25390625 C4.14097656 0.35574219 5.39523437 0.45757812 6.6875 0.5625 C7.92886719 0.66691406 9.17023437 0.77132813 10.44921875 0.87890625 C14.26870088 1.14509387 14.26870088 1.14509387 19 0 C19.33 11.55 19.66 23.1 20 35 C22.97 32.525 22.97 32.525 26 30 C33.22399332 27.13766303 39.93667859 26.99838155 47.1875 29.6875 C56.51017457 33.88054219 60.36150904 39.4948868 64 49 C65.06759117 54.84170491 65.21209245 60.609052 65.31640625 66.52734375 C65.33718735 67.51626114 65.35796844 68.50517853 65.37937927 69.52406311 C65.44440554 72.66180938 65.50354018 75.79963446 65.5625 78.9375 C65.60572991 81.07357563 65.64934558 83.2096435 65.69335938 85.34570312 C65.80075939 90.56372273 65.9001811 95.7818079 66 101 C59.07 101 52.14 101 45 101 C44.96261719 97.98875 44.92523437 94.9775 44.88671875 91.875 C44.84042814 88.93921901 44.78922189 86.00356171 44.73754883 83.06787109 C44.70441787 81.03702391 44.67634957 79.00608726 44.65356445 76.97509766 C44.61980023 74.04551282 44.56747401 71.1167391 44.51171875 68.1875 C44.50532883 67.28821777 44.4989389 66.38893555 44.49235535 65.46240234 C44.35921889 59.67606373 43.4887782 55.25575929 41 50 C37.3211519 47.39414926 35.55894392 46.85102958 31.09765625 47.27734375 C28.36660267 47.75888087 25.69590016 48.35490659 23 49 C20.61791125 55.83048814 19.54147365 61.94607612 19.48828125 69.1640625 C19.47033005 70.08214691 19.45237885 71.00023132 19.43388367 71.94613647 C19.38029527 74.83904613 19.34605209 77.73179585 19.3125 80.625 C19.27928136 82.60288661 19.24478759 84.58075224 19.20898438 86.55859375 C19.12223073 91.37241227 19.06172388 96.1855374 19 101 C12.73 101 6.46 101 0 101 C-0.93726998 96.31365012 -1.1412201 92.03262249 -1.12939453 87.29418945 C-1.13202301 85.99581146 -1.13202301 85.99581146 -1.13470459 84.67120361 C-1.13909556 81.81854226 -1.13619558 78.9659432 -1.1328125 76.11328125 C-1.13348615 74.12981657 -1.13445668 72.14635197 -1.13571167 70.16288757 C-1.13718475 66.01117159 -1.13504589 61.85947715 -1.13037109 57.70776367 C-1.12466288 52.3777181 -1.12796218 47.04772277 -1.13394356 41.71767902 C-1.13755016 37.62486896 -1.13641032 33.5320709 -1.13381577 29.43926048 C-1.13314735 27.47319724 -1.13397196 25.50713292 -1.13629532 23.54107094 C-1.13882465 20.79989339 -1.13497776 18.05879833 -1.12939453 15.31762695 C-1.13141876 14.500457 -1.13344299 13.68328705 -1.13552856 12.84135437 C-1.11426644 7.22853288 -1.11426644 7.22853288 0 5 C-0.66 4.67 -1.32 4.34 -2 4 C-1.34 2.68 -0.68 1.36 0 0 Z " fill="#0B0C0B" transform="translate(878,395)"/>
<path d="M0 0 C6.68459882 5.66367827 11.62743528 14.09971273 13.0390625 22.7890625 C13.69663636 32.58345203 11.16231876 40.70521748 4.875 48.25 C-2.36874687 55.98589103 -9.9717604 60.02162395 -20.6875 60.4375 C-30.07467316 60.16281173 -39.20454312 56.83981501 -45.8125 50 C-47.53736596 47.52246526 -49.04685074 45.01875881 -50.48828125 42.3671875 C-51.7349064 39.97288016 -51.7349064 39.97288016 -53.45703125 38.0078125 C-56.08013655 34.12229053 -55.25037233 29.49814305 -54.8125 25 C-54.00591568 20.93774807 -52.95368055 16.9793498 -51.8125 13 C-51.47343392 11.66811296 -51.13765638 10.33535097 -50.8125 9 C-50.1525 9 -49.4925 9 -48.8125 9 C-48.56886719 8.42378906 -48.32523438 7.84757812 -48.07421875 7.25390625 C-43.92865289 -0.15164019 -36.31390682 -4.4074875 -28.4375 -6.6875 C-18.04914697 -7.92420869 -8.73184188 -6.08402611 0 0 Z " fill="#0A0B0A" transform="translate(194.8125,407)"/>
<path d="M0 0 C6.67091173 6.82974296 7.78749684 13.53831926 7.72265625 22.83203125 C7.7212413 23.60181808 7.71982635 24.37160492 7.71836853 25.16471863 C7.71279606 27.60985288 7.70024871 30.05489368 7.6875 32.5 C7.68248144 34.16341013 7.67791915 35.8268217 7.67382812 37.49023438 C7.66283566 41.55602528 7.6455901 45.62174683 7.625 49.6875 C9.275 49.6875 10.925 49.6875 12.625 49.6875 C12.625 54.9675 12.625 60.2475 12.625 65.6875 C5.035 65.6875 -2.555 65.6875 -10.375 65.6875 C-11.035 63.3775 -11.695 61.0675 -12.375 58.6875 C-12.87 60.1725 -12.87 60.1725 -13.375 61.6875 C-19.94156561 67.33273625 -27.4685111 69.03039994 -35.9375 68.5625 C-44.58163679 67.48951789 -49.4652226 64.19090324 -55.02734375 57.58984375 C-58.52453399 52.65323029 -57.88116135 46.4606737 -57.375 40.6875 C-55.85482719 34.84887448 -52.48817004 31.26957091 -47.5625 27.9375 C-36.62576777 21.68793873 -23.59859905 22.48927947 -11.375 22.6875 C-12.34715906 16.59740765 -12.34715906 16.59740765 -15.125 11.1875 C-17.92180619 9.32296254 -20.03576636 8.90064257 -23.375 8.6875 C-24.365 9.0175 -25.355 9.3475 -26.375 9.6875 C-27.20386719 9.77902344 -28.03273438 9.87054688 -28.88671875 9.96484375 C-31.529015 10.46557592 -31.529015 10.46557592 -32.95703125 12.75390625 C-33.36308594 13.57761719 -33.76914062 14.40132813 -34.1875 15.25 C-35.2703125 17.4465625 -35.2703125 17.4465625 -36.375 19.6875 C-42.315 19.3575 -48.255 19.0275 -54.375 18.6875 C-54.13709692 11.19355297 -52.43359975 6.31423622 -47.375 0.6875 C-34.28898959 -10.00504528 -13.4759791 -10.18259767 0 0 Z M-35.9375 39.9375 C-37.6402275 43.19489174 -37.92669635 45.06206686 -37.375 48.6875 C-35.52157225 51.24699546 -34.43743607 51.66668798 -31.375 52.6875 C-25.51686505 53.07804233 -21.63457756 52.62072595 -16.375 49.6875 C-12.53652036 46.0510456 -11.57343396 42.94600003 -11.375 37.6875 C-13.17786981 35.47080773 -13.17786981 35.47080773 -15.66015625 35.421875 C-26.56487043 35.23779831 -26.56487043 35.23779831 -35.9375 39.9375 Z " fill="#0C0C0C" transform="translate(734.375,430.3125)"/>
<path d="M0 0 C7.25560283 6.80932567 9.75648873 12.90744365 11.6875 22.5625 C11.6875 26.8525 11.6875 31.1425 11.6875 35.5625 C-4.8125 35.8925 -21.3125 36.2225 -38.3125 36.5625 C-36.28098272 43.80987114 -36.28098272 43.80987114 -31.3125 48.5625 C-26.68652782 50.10449073 -22.14350166 50.07320589 -17.3125 49.5625 C-13.40174075 47.57281547 -11.73560902 46.19716354 -9.3125 42.5625 C-5.8772952 40.27236347 -4.327169 40.38407027 -0.3125 40.5625 C-0.3125 41.2225 -0.3125 41.8825 -0.3125 42.5625 C3.6475 42.5625 7.6075 42.5625 11.6875 42.5625 C7.32551527 52.82599348 2.27242969 60.1404836 -8 65 C-18.2241217 69.00842077 -29.11151886 68.44796925 -39.3125 64.5625 C-46.2474131 60.68001969 -52.14198142 56.02460451 -55.3125 48.5625 C-55.3125 47.9025 -55.3125 47.2425 -55.3125 46.5625 C-56.6325 46.2325 -57.9525 45.9025 -59.3125 45.5625 C-58.3225 45.5625 -57.3325 45.5625 -56.3125 45.5625 C-56.62445312 44.86898437 -56.93640625 44.17546875 -57.2578125 43.4609375 C-61.09315242 32.9208552 -59.37555554 21.74812132 -55.3125 11.5625 C-50.32322261 2.226243 -43.76967214 -2.77866441 -34.125 -6.75 C-21.51597384 -9.83220639 -10.05476138 -8.5150101 0 0 Z M-34.3125 11.5625 C-35.99741955 13.86197988 -37.09960488 15.94264654 -38.3125 18.5625 C-37.9825 19.2225 -37.6525 19.8825 -37.3125 20.5625 C-37.6425 20.8925 -37.9725 21.2225 -38.3125 21.5625 C-38.3125 21.8925 -38.3125 22.2225 -38.3125 22.5625 C-28.4125 22.5625 -18.5125 22.5625 -8.3125 22.5625 C-9.06175326 15.79103037 -9.06175326 15.79103037 -12.3125 10.5625 C-19.21890233 5.67748372 -28.07879844 5.77406284 -34.3125 11.5625 Z " fill="#0D0D0C" transform="translate(660.3125,431.4375)"/>
<path d="M0 0 C9.24191638 -0.5134398 18.22103836 2.67056951 25.3125 8.5703125 C32.71901545 15.4620253 37.4131778 23.7141375 38.29296875 33.96875 C38.55979668 45.33000259 36.53488233 55.47015106 28.97265625 64.2578125 C21.66027388 71.62976622 14.3321629 75.0055437 4.0546875 76.19140625 C3.3946875 76.41828125 2.7346875 76.64515625 2.0546875 76.87890625 C-1.18276615 77.38475838 -3.92560016 76.24224305 -6.9453125 75.19140625 C-7.71230469 74.95679688 -8.47929687 74.7221875 -9.26953125 74.48046875 C-16.48621447 72.01070903 -21.82872379 67.83054019 -26.9453125 62.19140625 C-26.9453125 61.53140625 -26.9453125 60.87140625 -26.9453125 60.19140625 C-27.6053125 60.19140625 -28.2653125 60.19140625 -28.9453125 60.19140625 C-29.59574969 58.46396609 -30.24046094 56.73436935 -30.8828125 55.00390625 C-31.24246094 54.04097656 -31.60210937 53.07804687 -31.97265625 52.0859375 C-35.67980561 41.05381831 -34.81905099 29.70842088 -29.9453125 19.19140625 C-24.79371166 10.38766188 -17.52124344 4.55973555 -7.9453125 1.19140625 C-5.25879881 0.51977783 -2.74300796 0.26989436 0 0 Z M-8.9453125 22.19140625 C-13.91149353 28.7929762 -14.52521416 35.20408153 -13.9453125 43.19140625 C-12.90733896 48.77170434 -10.46836783 52.59408478 -5.96484375 56.0546875 C-2.35335392 58.08746031 0.94933562 58.60758453 5.0546875 58.19140625 C9.73456888 56.84366656 12.45694829 54.94241192 15.4921875 51.12890625 C18.92658986 44.67222981 19.139593 37.07775227 17.55859375 29.95703125 C15.61395714 24.99106658 12.30969049 21.43759211 7.6796875 18.87890625 C1.23914824 17.19209835 -3.88327697 17.87046277 -8.9453125 22.19140625 Z " fill="#0C0C0C" transform="translate(399.9453125,422.80859375)"/>
<path d="M0 0 C8.65878295 6.09428484 13.66933254 15.18050319 15.53515625 25.52734375 C16.68243727 35.82454498 14.8055101 46.40318619 8.72265625 54.96484375 C7.69326894 56.18115961 6.63103856 57.37057909 5.53515625 58.52734375 C4.76558594 59.35685547 4.76558594 59.35685547 3.98046875 60.203125 C-2.99304939 66.92639728 -12.9281752 69.6450804 -22.46484375 69.52734375 C-32.42922998 68.72561152 -40.94468356 65.60706724 -47.83984375 58.21484375 C-55.39519391 48.90774909 -57.87461467 39.36368582 -57.3125 27.2421875 C-56.06282232 18.01837607 -52.72213037 9.60321162 -45.46484375 3.52734375 C-44.87832031 3.02460937 -44.29179687 2.521875 -43.6875 2.00390625 C-30.96077811 -8.32867984 -13.91079261 -8.31120256 0 0 Z M-31.9765625 15.9609375 C-37.18751185 21.94830338 -36.8797341 28.05245416 -36.7421875 35.5546875 C-36.40480455 40.38734191 -35.63081374 43.82394058 -32.46484375 47.52734375 C-28.65414173 50.75815633 -25.48379633 52.42893292 -20.46484375 52.52734375 C-15.79426078 51.6661015 -11.77508323 50.36138762 -8.52734375 46.77734375 C-4.23599852 40.01522399 -3.31850936 32.81554329 -5 25.05859375 C-6.03109292 21.58781102 -6.9453856 19.09707204 -9.40234375 16.40234375 C-11.88190237 15.35040979 -12.99287196 15.55621197 -15.46484375 16.52734375 C-15.46484375 15.20734375 -15.46484375 13.88734375 -15.46484375 12.52734375 C-21.89173303 11.28706687 -26.84546688 11.09501478 -31.9765625 15.9609375 Z " fill="#0C0C0C" transform="translate(480.46484375,551.47265625)"/>
<path d="M0 0 C5.26819677 4.64373379 8.17885704 10.81020646 10 17.53515625 C9.546875 19.70825195 9.546875 19.70825195 9 21.53515625 C-7.28290858 22.76405501 -7.28290858 22.76405501 -11.390625 19.82421875 C-12.875 17.66015625 -12.875 17.66015625 -13.9296875 15.48046875 C-15.27621996 13.03312144 -16.40757005 12.48538903 -19 11.53515625 C-24.26186946 11.04794611 -27.45368799 11.87390044 -32 14.53515625 C-32 15.19515625 -32 15.85515625 -32 16.53515625 C-32.45375 16.92703125 -32.9075 17.31890625 -33.375 17.72265625 C-36.443295 21.14498529 -36.89223733 25.39287198 -37.3125 29.84765625 C-36.79830893 35.91511091 -35.92217783 42.28775959 -31.25 46.59765625 C-26.31283762 49.54096459 -22.85704192 49.90656463 -17.25 48.78515625 C-14.24496072 47.62937191 -12.85615005 47.07515105 -11 44.53515625 C-10.73960937 43.85839844 -10.47921875 43.18164062 -10.2109375 42.484375 C-9 40.53515625 -9 40.53515625 -6.93359375 39.890625 C-1.12261687 39.499589 4.23117139 39.69774565 10 40.53515625 C9.71142924 48.47085213 6.73073938 53.51949167 1.36328125 59.296875 C-6.15993739 66.25892115 -14.83348468 68.84091611 -25 68.53515625 C-35.55693756 67.15931476 -44.10391769 62.78270273 -50.72265625 54.3671875 C-57.16168677 45.13200305 -58.8739276 34.67569167 -57.59375 23.546875 C-55.708509 13.9842381 -51.44108692 5.89461407 -44 -0.46484375 C-30.15770832 -9.70814163 -13.46179866 -9.85971582 0 0 Z " fill="#0C0D0C" transform="translate(860,430.46484375)"/>
<path d="M0 0 C3.14582571 -0.02770316 6.2915906 -0.04675921 9.4375 -0.0625 C10.33533203 -0.07087891 11.23316406 -0.07925781 12.15820312 -0.08789062 C13.01220703 -0.09111328 13.86621094 -0.09433594 14.74609375 -0.09765625 C15.53685303 -0.10289307 16.3276123 -0.10812988 17.14233398 -0.11352539 C19 0 19 0 20 1 C20.11034027 3.30845418 20.14915791 5.62033779 20.16113281 7.93139648 C20.16858017 9.01942818 20.16858017 9.01942818 20.17617798 10.12944031 C20.19084911 12.54333431 20.19761351 14.95716237 20.203125 17.37109375 C20.20887708 19.04964703 20.21463481 20.7282003 20.22039795 22.40675354 C20.23092518 25.93678087 20.23675501 29.46678534 20.24023438 32.99682617 C20.24569047 37.49901486 20.26964871 42.00089671 20.29820633 46.50298977 C20.31693415 49.97677962 20.32204391 53.45049752 20.32357025 56.92433357 C20.32657987 58.5823641 20.33455066 60.24039388 20.34775543 61.89837456 C20.43549868 73.77357202 20.14675451 84.4333272 12.23046875 93.953125 C4.41698496 101.1234674 -4.89418745 103.27636216 -15.16015625 103.15234375 C-22.91672115 102.73624192 -30.90513495 100.80766864 -36.7265625 95.39453125 C-42.35429693 89.11531032 -44.46324343 83.32898128 -45 75 C-38.25846717 73.74158054 -31.86515862 72.73595544 -25 73 C-24.74605469 73.55429687 -24.49210937 74.10859375 -24.23046875 74.6796875 C-23.71419922 75.76636719 -23.71419922 75.76636719 -23.1875 76.875 C-22.85105469 77.59429687 -22.51460938 78.31359375 -22.16796875 79.0546875 C-21.00532903 81.30542806 -21.00532903 81.30542806 -18 83 C-15.88450298 83.27893761 -15.88450298 83.27893761 -13.625 83.1875 C-12.87476563 83.18105469 -12.12453125 83.17460937 -11.3515625 83.16796875 C-8.8353968 82.98824263 -6.46733956 82.51328241 -4 82 C-1.06337494 74.17536965 -0.61039732 67.13112019 -0.7421875 58.828125 C-0.74880402 57.5881073 -0.75542053 56.3480896 -0.76223755 55.07049561 C-0.78549522 51.13006955 -0.82912732 47.19022199 -0.875 43.25 C-0.91031155 39.32413009 -0.94115658 35.3982991 -0.96633911 31.47235107 C-0.98302594 29.03906885 -1.00591262 26.60581757 -1.03634644 24.17266846 C-1.10645013 16.07030187 -0.68512829 8.07281017 0 0 Z " fill="#0C0D0C" transform="translate(339,396)"/>
<path d="M0 0 C0 6.6 0 13.2 0 20 C-7.1875 20.75 -7.1875 20.75 -9.42260742 20.95605469 C-14.10100966 21.51455672 -16.78857723 22.55470808 -20 26 C-22.93284188 31.58604691 -23.46409581 36.18200375 -23.51171875 42.43359375 C-23.52966995 43.31153091 -23.54762115 44.18946808 -23.56611633 45.0940094 C-23.61993679 47.87512529 -23.65402364 50.65607237 -23.6875 53.4375 C-23.72069808 55.33270564 -23.75519003 57.22788908 -23.79101562 59.12304688 C-23.87564675 63.74857555 -23.942592 68.37405662 -24 73 C-27.29159316 73.05790353 -30.58305603 73.09356261 -33.875 73.125 C-34.81214844 73.14175781 -35.74929688 73.15851563 -36.71484375 73.17578125 C-37.61074219 73.18222656 -38.50664062 73.18867187 -39.4296875 73.1953125 C-40.25710449 73.20578613 -41.08452148 73.21625977 -41.93701172 73.22705078 C-44 73 -44 73 -46 71 C-46.26069641 68.23609924 -46.26069641 68.23609924 -46.2746582 64.67016602 C-46.27976913 64.02120361 -46.28488007 63.37224121 -46.29014587 62.70361328 C-46.30407115 60.5536177 -46.30308292 58.40394163 -46.30078125 56.25390625 C-46.30466672 54.76179382 -46.30900107 53.26968251 -46.31376648 51.77757263 C-46.32123508 48.64782122 -46.32093293 45.5181826 -46.31567383 42.38842773 C-46.30987967 38.37541101 -46.32680535 34.36285589 -46.3500185 30.3499155 C-46.36474302 27.26756587 -46.36562929 24.18532771 -46.36250877 21.10294914 C-46.36302268 19.62335229 -46.36827346 18.14374931 -46.37832069 16.66418648 C-46.39064297 14.59556126 -46.38391985 12.52783903 -46.37231445 10.45922852 C-46.37294388 9.28167496 -46.3735733 8.1041214 -46.3742218 6.8908844 C-46 4 -46 4 -44.66178894 2.1124115 C-42.04461851 0.36046189 -39.71875499 0.75464798 -36.625 0.875 C-32.54668082 1.0156317 -28.97430524 0.96752749 -25 0 C-24.67 3.3 -24.34 6.6 -24 10 C-23.54109375 9.44570313 -23.0821875 8.89140625 -22.609375 8.3203125 C-21.99578125 7.59585938 -21.3821875 6.87140625 -20.75 6.125 C-20.14671875 5.40570312 -19.5434375 4.68640625 -18.921875 3.9453125 C-13.42161885 -1.62201995 -7.39639331 -1.05662762 0 0 Z " fill="#0E0E0E" transform="translate(422,546)"/>
<path d="M0 0 C1 1 1 1 1.11352539 2.94946289 C1.10828857 3.7821167 1.10305176 4.61477051 1.09765625 5.47265625 C1.09443359 6.37177734 1.09121094 7.27089844 1.08789062 8.19726562 C1.07532227 9.61555664 1.07532227 9.61555664 1.0625 11.0625 C1.05798828 12.01189453 1.05347656 12.96128906 1.04882812 13.93945312 C1.0370011 16.29303065 1.02052025 18.64648477 1 21 C0.14277344 21.02578125 -0.71445312 21.0515625 -1.59765625 21.078125 C-11.02953225 21.48989347 -11.02953225 21.48989347 -19 26 C-21.98791047 31.54682623 -22.46424034 36.20097694 -22.51171875 42.43359375 C-22.52966995 43.31153091 -22.54762115 44.18946808 -22.56611633 45.0940094 C-22.61993679 47.87512529 -22.65402364 50.65607237 -22.6875 53.4375 C-22.72069808 55.33270564 -22.75519003 57.22788908 -22.79101562 59.12304688 C-22.87806327 63.7487184 -22.93837189 68.37364187 -23 73 C-29.93 73 -36.86 73 -44 73 C-44.66 71.35 -45.32 69.7 -46 68 C-45.34 68 -44.68 68 -44 68 C-44.08378906 67.06542969 -44.16757812 66.13085938 -44.25390625 65.16796875 C-44.92739791 56.48077888 -44.96836928 48.0790667 -44.31860352 39.38549805 C-44.03302677 35.33374374 -44.09558407 31.98924546 -45 28 C-44.87890625 25.8515625 -44.87890625 25.8515625 -44.5625 23.625 C-43.85610853 17.77961058 -44.01217364 11.99694989 -44.16015625 6.125 C-44 3 -44 3 -42 1 C-40.13647461 0.75708008 -40.13647461 0.75708008 -37.90234375 0.76953125 C-37.10119141 0.77146484 -36.30003906 0.77339844 -35.47460938 0.77539062 C-34.63736328 0.78763672 -33.80011719 0.79988281 -32.9375 0.8125 C-31.67583008 0.8134668 -31.67583008 0.8134668 -30.38867188 0.81445312 C-24.14023184 0.85976816 -24.14023184 0.85976816 -23 2 C-22.95907063 4.33297433 -22.95758277 6.66705225 -23 9 C-22.43152344 8.51789063 -21.86304688 8.03578125 -21.27734375 7.5390625 C-14.41447356 1.92502846 -9.06832005 -0.5440992 0 0 Z " fill="#0E0E0E" transform="translate(799,423)"/>
<path d="M0 0 C0 4.73745496 -2.61197961 7.5242492 -5.73046875 10.83984375 C-10.4032119 15.25143559 -14.77109138 17.48602915 -21 19 C-21.33 18.34 -21.66 17.68 -22 17 C-21.21496094 16.6596875 -20.42992187 16.319375 -19.62109375 15.96875 C-12.37207735 12.62441851 -7.8206328 9.29770691 -3 3 C-2.01610738 1.98414799 -1.02098245 0.97856775 0 0 Z " fill="#1B1B1A" transform="translate(491,600)"/>
<path d="M0 0 C0.66 0.33 1.32 0.66 2 1 C1.01 2.485 1.01 2.485 0 4 C-0.99 4 -1.98 4 -3 4 C-3.268125 4.639375 -3.53625 5.27875 -3.8125 5.9375 C-5 8 -5 8 -8 9 C-9.22520264 12.00847418 -9.22520264 12.00847418 -10 15 C-10.99 15 -11.98 15 -13 15 C-11.18776901 9.01963774 -7.22907862 4.62114808 -2.25 1 C-1.5075 0.67 -0.765 0.34 0 0 Z " fill="#191918" transform="translate(536,399)"/>
<path d="M0 0 C-0.67804688 0.25652344 -1.35609375 0.51304687 -2.0546875 0.77734375 C-9.72381364 3.93209509 -15.14618761 8.17158376 -21 14 C-21 11 -21 11 -19.0625 8.6875 C-14.01710679 3.93124107 -7.16159701 -2.22256459 0 0 Z " fill="#101010" transform="translate(452,548)"/>
<path d="M0 0 C0.66 0.66 1.32 1.32 2 2 C1.86328125 4.03125 1.86328125 4.03125 1.3125 6.5 C1.11527344 7.38429688 0.91804688 8.26859375 0.71484375 9.1796875 C-0.37990571 13.49886296 -1.64545574 17.75576133 -3 22 C-3.33 22 -3.66 22 -4 22 C-4.2248832 16.5957757 -3.4886411 12.18724757 -2 7.0625 C-1.80921875 6.37865234 -1.6184375 5.69480469 -1.421875 4.99023438 C-0.95595063 3.32455474 -0.47911589 1.66193325 0 0 Z " fill="#1C1C1B" transform="translate(78,419)"/>
<path d="M0 0 C0.33 0 0.66 0 1 0 C1 5.94 1 11.88 1 18 C0.67 17.34 0.34 16.68 0 16 C-0.66 15.67 -1.32 15.34 -2 15 C-2.21755666 9.5610835 -2.10428384 5.12919186 0 0 Z " fill="#121312" transform="translate(340,418)"/>
<path d="M0 0 C3.78091617 1.34313185 6.65651916 3.02964684 9.8125 5.5 C10.60269531 6.1084375 11.39289062 6.716875 12.20703125 7.34375 C12.79871094 7.8903125 13.39039063 8.436875 14 9 C14 9.66 14 10.32 14 11 C8.65478385 9.49665796 4.86491984 5.82879909 1 2 C0.67 1.34 0.34 0.68 0 0 Z " fill="#171716" transform="translate(809,484)"/>
<path d="M0 0 C3.11683189 3.11683189 2.85474364 6.72153992 3 11 C2.80768371 14.04042901 2.43146808 16.97972342 2 20 C1.67 20 1.34 20 1 20 C0.11978631 13.28837062 -0.11381955 6.76594019 0 0 Z " fill="#191918" transform="translate(514,452)"/>
<path d="M0 0 C0.66 0.33 1.32 0.66 2 1 C-0.50120227 4.21583149 -3.07483991 7.16625116 -6 10 C-7.11375 11.11375 -7.11375 11.11375 -8.25 12.25 C-8.8275 12.8275 -9.405 13.405 -10 14 C-8.2403147 7.69446099 -5.42141176 3.67881512 0 0 Z " fill="#191A19" transform="translate(691,428)"/>
<path d="M0 0 C5.47932789 1.54545146 10.11429181 4.15543212 15 7 C13.359375 7.68359375 13.359375 7.68359375 11 8 C8.203125 6.78515625 8.203125 6.78515625 5.25 5.0625 C4.26515625 4.49660156 3.2803125 3.93070312 2.265625 3.34765625 C1.51796875 2.90292969 0.7703125 2.45820313 0 2 C0 1.34 0 0.68 0 0 Z " fill="#171717" transform="translate(211,359)"/>
<path d="M0 0 C0.66 0.33 1.32 0.66 2 1 C1.56429687 1.49628906 1.12859375 1.99257813 0.6796875 2.50390625 C-3.24273979 6.97819019 -7.13544286 11.47564042 -11 16 C-11.66 15.67 -12.32 15.34 -13 15 C-12.39671875 14.33613281 -11.7934375 13.67226563 -11.171875 12.98828125 C-10.37265625 12.10527344 -9.5734375 11.22226562 -8.75 10.3125 C-7.96109375 9.44238281 -7.1721875 8.57226562 -6.359375 7.67578125 C-4.15500436 5.17579137 -2.05866059 2.62054272 0 0 Z " fill="#181717" transform="translate(105,378)"/>
<path d="M0 0 C4.30412163 0.8241935 8.56824426 0.63885593 12.9375 0.5625 C13.2675 1.2225 13.5975 1.8825 13.9375 2.5625 C11.33305652 2.61644705 8.72973002 2.65614469 6.125 2.6875 C5.38701172 2.70425781 4.64902344 2.72101562 3.88867188 2.73828125 C0.02503574 2.77324628 -1.77153668 2.75647555 -5.0625 0.5625 C-2.0625 -0.4375 -2.0625 -0.4375 0 0 Z " fill="#292928" transform="translate(305.0625,520.4375)"/>
<path d="M0 0 C4.52705337 3.14378706 6.58004469 6.16008937 9 11 C9 11.66 9 12.32 9 13 C5.61648189 11.87216063 5.47116525 11.54911128 3.9375 8.5625 C2.73980602 6.25850235 1.86847183 4.86847183 0 3 C0 2.01 0 1.02 0 0 Z " fill="#181817" transform="translate(931,428)"/>
<path d="M0 0 C3.47575128 0.56793322 5.02496366 1.66168245 7.3125 4.3125 C7.84488281 4.90675781 8.37726563 5.50101563 8.92578125 6.11328125 C10 8 10 8 9.66796875 10.23046875 C9.44753906 10.81441406 9.22710937 11.39835938 9 12 C7.49707257 10.18992669 5.99772829 8.37687764 4.5 6.5625 C3.6646875 5.55316406 2.829375 4.54382813 1.96875 3.50390625 C0 1 0 1 0 0 Z " fill="#171717" transform="translate(91,511)"/>
<path d="M0 0 C0.8353125 0.37125 0.8353125 0.37125 1.6875 0.75 C1.0275 0.75 0.3675 0.75 -0.3125 0.75 C-0.539375 1.348125 -0.76625 1.94625 -1 2.5625 C-2.65061133 5.31351888 -4.5097081 6.27484637 -7.3125 7.75 C-7.3125 3.75 -7.3125 3.75 -5.0625 1.4375 C-2.3125 -0.25 -2.3125 -0.25 0 0 Z " fill="#121312" transform="translate(619.3125,429.25)"/>
<path d="M0 0 C5.61 0.33 11.22 0.66 17 1 C17 1.33 17 1.66 17 2 C8.585 2.495 8.585 2.495 0 3 C0 2.01 0 1.02 0 0 Z " fill="#222221" transform="translate(171,351)"/>
<path d="M0 0 C4.05281712 1.22527029 7.44360764 2.69880494 11 5 C10.67 5.66 10.34 6.32 10 7 C6.66666667 5.66666667 3.33333333 4.33333333 0 3 C0 2.01 0 1.02 0 0 Z " fill="#161515" transform="translate(196,478)"/>
<path d="M0 0 C0.66 0.33 1.32 0.66 2 1 C-1.86364295 5.48717034 -5.74790208 9.87675353 -10 14 C-8.38798165 8.2683792 -4.12110332 4.12110332 0 0 Z " fill="#1B1B1B" transform="translate(380,430)"/>
<path d="M0 0 C1 3 1 3 0.109375 5.2265625 C-0.33921875 6.01804687 -0.7878125 6.80953125 -1.25 7.625 C-1.68828125 8.42164063 -2.1265625 9.21828125 -2.578125 10.0390625 C-4 12 -4 12 -7 13 C-5.58832253 7.73829306 -3.25149768 4.27828642 0 0 Z " fill="#141413" transform="translate(129,493)"/>
<path d="M0 0 C-0.99 0.33 -1.98 0.66 -3 1 C-3.33 1.66 -3.66 2.32 -4 3 C-5.65391846 3.39171753 -7.32345271 3.72057545 -9 4 C-9.99 4.33 -10.98 4.66 -12 5 C-12.66 4.34 -13.32 3.68 -14 3 C-12.42274653 2.29866401 -10.83788667 1.614417 -9.25 0.9375 C-7.92742187 0.36322266 -7.92742187 0.36322266 -6.578125 -0.22265625 C-3.84743691 -1.04600008 -2.63098653 -0.9773992 0 0 Z " fill="#1D1D1D" transform="translate(146,357)"/>
<path d="M0 0 C0.66 0 1.32 0 2 0 C5 6.625 5 6.625 5 10 C4.34 10 3.68 10 3 10 C0.96564469 6.27034861 0 4.33094958 0 0 Z " fill="#131413" transform="translate(264,411)"/>
<path d="M0 0 C-1.76505435 0.86604534 -3.53728074 1.71748642 -5.3125 2.5625 C-6.79169922 3.27599609 -6.79169922 3.27599609 -8.30078125 4.00390625 C-11 5 -11 5 -14 4 C-12.42466914 3.13116294 -10.83935491 2.28040932 -9.25 1.4375 C-8.36828125 0.96183594 -7.4865625 0.48617187 -6.578125 -0.00390625 C-3.79298812 -1.07998186 -2.73019786 -1.06528748 0 0 Z " fill="#1B1C1B" transform="translate(452,548)"/>
<path d="M0 0 C1.25127906 3.54667178 0.72285053 5.72253438 -0.4375 9.25 C-0.72496094 10.14203125 -1.01242187 11.0340625 -1.30859375 11.953125 C-1.53675781 12.62859375 -1.76492188 13.3040625 -2 14 C-2.33 14 -2.66 14 -3 14 C-2.88570603 12.22844346 -2.75816963 10.45773771 -2.625 8.6875 C-2.55539062 7.70136719 -2.48578125 6.71523438 -2.4140625 5.69921875 C-2 3 -2 3 0 0 Z " fill="#1D1D1D" transform="translate(604,450)"/>
<path d="M0 0 C0.33 0 0.66 0 1 0 C0.67 4.95 0.34 9.9 0 15 C-0.33 15 -0.66 15 -1 15 C-1.22211116 13.06403108 -1.42722992 11.12610672 -1.625 9.1875 C-1.74101562 8.10855469 -1.85703125 7.02960938 -1.9765625 5.91796875 C-2 3 -2 3 0 0 Z " fill="#1B1B1A" transform="translate(465,449)"/>
<path d="M0 0 C4.62 0.66 9.24 1.32 14 2 C11 4 11 4 7 4 C7 3.34 7 2.68 7 2 C4.69 2 2.38 2 0 2 C0 1.34 0 0.68 0 0 Z " fill="#1D1D1B" transform="translate(336,521)"/>
<path d="M0 0 C0.33 0.99 0.66 1.98 1 3 C-1.97 5.475 -1.97 5.475 -5 8 C-5.66 7.67 -6.32 7.34 -7 7 C-4.78071806 4.09197539 -3.07030857 2.04687238 0 0 Z " fill="#151514" transform="translate(588,485)"/>
<path d="M0 0 C4.43090471 1.20842856 6.98112756 2.51668565 10 6 C6.44219804 5.39009109 3.3171411 4.4216319 0 3 C0 2.01 0 1.02 0 0 Z " fill="#1A1918" transform="translate(494,425)"/>
<path d="M0 0 C0.33 0.99 0.66 1.98 1 3 C-0.40445835 5.2636564 -2.1967913 7.0208685 -4 9 C-4.66 8.34 -5.32 7.68 -6 7 C-4.02 4.69 -2.04 2.38 0 0 Z " fill="#141514" transform="translate(430,481)"/>
<path d="M0 0 C0.33 0 0.66 0 1 0 C2.33257403 10.55808656 2.33257403 10.55808656 1 15 C0.67 15 0.34 15 0 15 C-1.2063366 9.77254141 -0.75612577 5.23471686 0 0 Z " fill="#242423" transform="translate(595,460)"/>
<path d="M0 0 C0.33 0 0.66 0 1 0 C1.33 2.97 1.66 5.94 2 9 C1.01 9.33 0.02 9.66 -1 10 C-1.125 3.375 -1.125 3.375 0 0 Z " fill="#1C1C1C" transform="translate(206,427)"/>
<path d="M0 0 C2.97 0.99 5.94 1.98 9 3 C8.67 3.66 8.34 4.32 8 5 C4.5625 4.1875 4.5625 4.1875 1 3 C0.67 2.01 0.34 1.02 0 0 Z " fill="#141414" transform="translate(572,439)"/>
<path d="M0 0 C1.875 0.1875 1.875 0.1875 4 1 C5.375 3.375 5.375 3.375 6 6 C5.01 7.485 5.01 7.485 4 9 C3.525625 7.88625 3.05125 6.7725 2.5625 5.625 C1.74693537 3.73289006 0.92143645 1.84287291 0 0 Z " fill="#1C1B1B" transform="translate(568,416)"/>
<path d="M0 0 C2.31 0.66 4.62 1.32 7 2 C7 2.66 7 3.32 7 4 C2.545 3.01 2.545 3.01 -2 2 C-1.34 1.34 -0.68 0.68 0 0 Z " fill="#191919" transform="translate(142,548)"/>
<path d="M0 0 C3.68754757 0.49831724 5.60490662 1.10067643 8 4 C7.67 4.99 7.34 5.98 7 7 C5.83040013 6.02433888 4.66438823 5.044375 3.5 4.0625 C2.8503125 3.51722656 2.200625 2.97195313 1.53125 2.41015625 C1.0259375 1.94480469 0.520625 1.47945312 0 1 C0 0.67 0 0.34 0 0 Z " fill="#171716" transform="translate(105,527)"/>
<path d="M0 0 C0.33 1.32 0.66 2.64 1 4 C-0.98 5.32 -2.96 6.64 -5 8 C-4.75 6.125 -4.75 6.125 -4 4 C-1.9375 2.75 -1.9375 2.75 0 2 C0 1.34 0 0.68 0 0 Z " fill="#171717" transform="translate(721,487)"/>
<path d="M0 0 C0.33 0 0.66 0 1 0 C1.19878036 3.57804656 1.04108797 5.99208089 -1 9 C-1.99 9.33 -2.98 9.66 -4 10 C-2.8905928 6.51329166 -1.73662334 3.22515763 0 0 Z " fill="#171716" transform="translate(85,404)"/>
<path d="M0 0 C3.465 1.485 3.465 1.485 7 3 C7 3.66 7 4.32 7 5 C2.25 4.125 2.25 4.125 0 3 C0 2.01 0 1.02 0 0 Z " fill="#181817" transform="translate(133,544)"/>
<path d="M0 0 C3.63 0 7.26 0 11 0 C11 0.33 11 0.66 11 1 C9.9275 1.144375 8.855 1.28875 7.75 1.4375 C5.08337051 1.83749442 2.58600271 2.27591924 0 3 C0 2.01 0 1.02 0 0 Z " fill="#2C2C2A" transform="translate(400,497)"/>
<path d="M0 0 C0.66 0 1.32 0 2 0 C1.25 7.75 1.25 7.75 -1 10 C-1.08004482 6.4780279 -1.04005702 3.38018531 0 0 Z " fill="#222221" transform="translate(868,471)"/>
<path d="M0 0 C0.763125 0.20625 1.52625 0.4125 2.3125 0.625 C2.6425 1.945 2.9725 3.265 3.3125 4.625 C2.755625 4.315625 2.19875 4.00625 1.625 3.6875 C-0.81290433 2.56738179 -3.04974186 2.06462636 -5.6875 1.625 C-2.6875 -0.375 -2.6875 -0.375 0 0 Z " fill="#1C1D1D" transform="translate(717.6875,437.375)"/>
<path d="M0 0 C0 0.66 0 1.32 0 2 C-3.96 1.67 -7.92 1.34 -12 1 C-12 0.67 -12 0.34 -12 0 C-3.42857143 -1.28571429 -3.42857143 -1.28571429 0 0 Z " fill="#272725" transform="translate(343,538)"/>
<path d="M0 0 C2.475 0.495 2.475 0.495 5 1 C5 1.99 5 2.98 5 4 C5.66 4 6.32 4 7 4 C7 4.99 7 5.98 7 7 C6.34 7 5.68 7 5 7 C3.96210419 5.35666496 2.96432076 3.68756133 2 2 C1.34 1.34 0.68 0.68 0 0 Z " fill="#181817" transform="translate(916,442)"/>
<path d="M0 0 C4 1 4 1 4 1 Z " fill="#2E2D2E" transform="translate(662,472)"/>
<path d="M0 0 C1 4 1 4 1 4 Z " fill="#313130" transform="translate(801,466)"/>
<path d="M0 0 C0.33 0.99 0.66 1.98 1 3 C0.34 2.67 -0.32 2.34 -1 2 C-0.67 1.34 -0.34 0.68 0 0 Z " fill="#2C2C2C" transform="translate(721,446)"/>
<path d="M0 0 C0.99 0.495 0.99 0.495 2 1 C1.01 1.495 1.01 1.495 0 2 C0 1.34 0 0.68 0 0 Z " fill="#2D2E2D" transform="translate(229,504)"/>
<path d="M0 0 C0.66 0 1.32 0 2 0 C1.67 0.66 1.34 1.32 1 2 C0.67 1.34 0.34 0.68 0 0 Z " fill="#2C2C2A" transform="translate(470,474)"/>
<path d="" fill="#2D2C2B" transform="translate(0,0)"/>
<path d="" fill="#30302E" transform="translate(0,0)"/>
<path d="" fill="#2F2E2E" transform="translate(0,0)"/>
<path d="M0 0 C0.66 0.66 1.32 1.32 2 2 C1.34 2 0.68 2 0 2 C0 1.34 0 0.68 0 0 Z " fill="#2E2E2C" transform="translate(145,453)"/>
<path d="M0 0 C0.66 0 1.32 0 2 0 C1.67 0.66 1.34 1.32 1 2 C0.67 1.34 0.34 0.68 0 0 Z " fill="#313030" transform="translate(546,453)"/>
<path d="" fill="#313030" transform="translate(0,0)"/>
<path d="" fill="#2D2D2D" transform="translate(0,0)"/>
<path d="M0 0 C2 1 2 1 2 1 Z " fill="#2D2D2C" transform="translate(412,567)"/>
<path d="" fill="#31312F" transform="translate(0,0)"/>
<path d="" fill="#2D2E2E" transform="translate(0,0)"/>
<path d="" fill="#30312F" transform="translate(0,0)"/>
<path d="M0 0 C2 1 2 1 2 1 Z " fill="#333331" transform="translate(446,546)"/>
<path d="" fill="#2F2F2D" transform="translate(0,0)"/>
<path d="M0 0 C2 1 2 1 2 1 Z " fill="#2F2E2D" transform="translate(338,540)"/>
<path d="M0 0 C2 1 2 1 2 1 Z " fill="#363535" transform="translate(394,499)"/>
<path d="M0 0 C2 1 2 1 2 1 Z " fill="#353434" transform="translate(313,498)"/>
<path d="" fill="#343434" transform="translate(0,0)"/>
<path d="M0 0 C2 1 2 1 2 1 Z " fill="#30302E" transform="translate(305,495)"/>
<path d="" fill="#2E2E2E" transform="translate(0,0)"/>
<path d="" fill="#2F302F" transform="translate(0,0)"/>
<path d="" fill="#30302F" transform="translate(0,0)"/>
<path d="" fill="#333333" transform="translate(0,0)"/>
<path d="" fill="#302E30" transform="translate(0,0)"/>
<path d="" fill="#313032" transform="translate(0,0)"/>
<path d="" fill="#30302E" transform="translate(0,0)"/>
<path d="" fill="#302F2F" transform="translate(0,0)"/>
<path d="" fill="#323332" transform="translate(0,0)"/>
<path d="M0 0 C2 1 2 1 2 1 Z " fill="#2F2E2E" transform="translate(522,465)"/>
<path d="M0 0 C2 1 2 1 2 1 Z " fill="#302F2F" transform="translate(528,464)"/>
<path d="" fill="#2F302F" transform="translate(0,0)"/>
<path d="" fill="#303030" transform="translate(0,0)"/>
<path d="" fill="#333230" transform="translate(0,0)"/>
<path d="M0 0 C2 1 2 1 2 1 Z " fill="#2F2E2E" transform="translate(720,450)"/>
<path d="M0 0 C2 1 2 1 2 1 Z " fill="#2F2F2E" transform="translate(532,447)"/>
<path d="" fill="#303130" transform="translate(0,0)"/>
<path d="" fill="#363738" transform="translate(0,0)"/>
<path d="M0 0 C2 1 2 1 2 1 Z " fill="#343534" transform="translate(824,424)"/>
<path d="M0 0 C2 1 2 1 2 1 Z " fill="#353533" transform="translate(725,424)"/>
<path d="" fill="#30312E" transform="translate(0,0)"/>
<path d="" fill="#383936" transform="translate(0,0)"/>
<path d="M0 0 C2 1 2 1 2 1 Z " fill="#2F302E" transform="translate(130,389)"/>
<path d="M0 0 C2 1 2 1 2 1 Z " fill="#373535" transform="translate(128,360)"/>
<path d="" fill="#5B5C5B" transform="translate(0,0)"/>
<path d="" fill="#3C3A39" transform="translate(0,0)"/>
<path d="" fill="#393B37" transform="translate(0,0)"/>
<path d="" fill="#3F4040" transform="translate(0,0)"/>
<path d="" fill="#373634" transform="translate(0,0)"/>
<path d="" fill="#373735" transform="translate(0,0)"/>
<path d="" fill="#383535" transform="translate(0,0)"/>
<path d="" fill="#373836" transform="translate(0,0)"/>
<path d="" fill="#33332E" transform="translate(0,0)"/>
<path d="" fill="#343231" transform="translate(0,0)"/>
<path d="" fill="#323031" transform="translate(0,0)"/>
<path d="" fill="#323131" transform="translate(0,0)"/>
<path d="" fill="#312F2F" transform="translate(0,0)"/>
<path d="" fill="#323030" transform="translate(0,0)"/>
<path d="" fill="#313230" transform="translate(0,0)"/>
<path d="" fill="#33312F" transform="translate(0,0)"/>
<path d="" fill="#2C2D2B" transform="translate(0,0)"/>
<path d="" fill="#2E2D2D" transform="translate(0,0)"/>
<path d="" fill="#2E2F2E" transform="translate(0,0)"/>
<path d="" fill="#2F302F" transform="translate(0,0)"/>
<path d="" fill="#333535" transform="translate(0,0)"/>
<path d="" fill="#32302F" transform="translate(0,0)"/>
<path d="" fill="#2F2F2F" transform="translate(0,0)"/>
<path d="" fill="#30312F" transform="translate(0,0)"/>
<path d="" fill="#313130" transform="translate(0,0)"/>
<path d="" fill="#302F31" transform="translate(0,0)"/>
<path d="" fill="#343232" transform="translate(0,0)"/>
<path d="" fill="#2C2C2C" transform="translate(0,0)"/>
<path d="" fill="#2D2F2E" transform="translate(0,0)"/>
<path d="" fill="#2D2D2E" transform="translate(0,0)"/>
<path d="" fill="#30302D" transform="translate(0,0)"/>
<path d="" fill="#393634" transform="translate(0,0)"/>
<path d="" fill="#31312F" transform="translate(0,0)"/>
<path d="" fill="#2F2F30" transform="translate(0,0)"/>
<path d="" fill="#322F31" transform="translate(0,0)"/>
<path d="" fill="#2A2C2B" transform="translate(0,0)"/>
<path d="" fill="#2C2D2C" transform="translate(0,0)"/>
<path d="" fill="#383838" transform="translate(0,0)"/>
<path d="" fill="#323330" transform="translate(0,0)"/>
<path d="" fill="#32302F" transform="translate(0,0)"/>
<path d="" fill="#33302E" transform="translate(0,0)"/>
<path d="" fill="#313030" transform="translate(0,0)"/>
<path d="" fill="#2E2F2D" transform="translate(0,0)"/>
<path d="" fill="#343334" transform="translate(0,0)"/>
<path d="" fill="#313031" transform="translate(0,0)"/>
<path d="" fill="#333331" transform="translate(0,0)"/>
<path d="" fill="#313231" transform="translate(0,0)"/>
<path d="" fill="#302E2F" transform="translate(0,0)"/>
<path d="" fill="#30302F" transform="translate(0,0)"/>
<path d="" fill="#343331" transform="translate(0,0)"/>
<path d="" fill="#2D2C2B" transform="translate(0,0)"/>
<path d="" fill="#373634" transform="translate(0,0)"/>
<path d="" fill="#31302E" transform="translate(0,0)"/>
<path d="" fill="#2B2D2B" transform="translate(0,0)"/>
<path d="" fill="#353533" transform="translate(0,0)"/>
<path d="" fill="#313230" transform="translate(0,0)"/>
<path d="" fill="#2F2F2D" transform="translate(0,0)"/>
<path d="" fill="#2F2F2F" transform="translate(0,0)"/>
<path d="" fill="#2E2C2C" transform="translate(0,0)"/>
<path d="" fill="#33302E" transform="translate(0,0)"/>
<path d="" fill="#333231" transform="translate(0,0)"/>
<path d="" fill="#2E2F2D" transform="translate(0,0)"/>
<path d="" fill="#2E2E2D" transform="translate(0,0)"/>
<path d="" fill="#2B2E2C" transform="translate(0,0)"/>
<path d="" fill="#353536" transform="translate(0,0)"/>
<path d="" fill="#3A3937" transform="translate(0,0)"/>
<path d="" fill="#3B3A39" transform="translate(0,0)"/>
<path d="" fill="#3A3A39" transform="translate(0,0)"/>
<path d="" fill="#3C3A38" transform="translate(0,0)"/>
<path d="" fill="#3D3D39" transform="translate(0,0)"/>
<path d="" fill="#3C3D3B" transform="translate(0,0)"/>
<path d="" fill="#3A3A39" transform="translate(0,0)"/>
<path d="" fill="#343434" transform="translate(0,0)"/>
<path d="" fill="#353535" transform="translate(0,0)"/>
<path d="" fill="#353533" transform="translate(0,0)"/>
<path d="" fill="#373735" transform="translate(0,0)"/>
<path d="" fill="#343532" transform="translate(0,0)"/>
<path d="" fill="#2D2D2C" transform="translate(0,0)"/>
<path d="" fill="#333434" transform="translate(0,0)"/>
<path d="" fill="#343333" transform="translate(0,0)"/>
<path d="" fill="#323633" transform="translate(0,0)"/>
<path d="" fill="#363435" transform="translate(0,0)"/>
<path d="" fill="#353335" transform="translate(0,0)"/>
<path d="" fill="#363636" transform="translate(0,0)"/>
<path d="" fill="#312F31" transform="translate(0,0)"/>
<path d="" fill="#353534" transform="translate(0,0)"/>
<path d="" fill="#363331" transform="translate(0,0)"/>
<path d="" fill="#303330" transform="translate(0,0)"/>
<path d="" fill="#32332F" transform="translate(0,0)"/>
<path d="" fill="#2F2E2F" transform="translate(0,0)"/>
<path d="" fill="#30312F" transform="translate(0,0)"/>
<path d="" fill="#353433" transform="translate(0,0)"/>
<path d="" fill="#323331" transform="translate(0,0)"/>
<path d="" fill="#2E3030" transform="translate(0,0)"/>
<path d="" fill="#2D2D2C" transform="translate(0,0)"/>
<path d="" fill="#2F2D2E" transform="translate(0,0)"/>
<path d="" fill="#2B2C2E" transform="translate(0,0)"/>
<path d="" fill="#363635" transform="translate(0,0)"/>
<path d="" fill="#383937" transform="translate(0,0)"/>
<path d="" fill="#2E2D2C" transform="translate(0,0)"/>
<path d="" fill="#2E2D2D" transform="translate(0,0)"/>
<path d="" fill="#2F302E" transform="translate(0,0)"/>
<path d="" fill="#2F3030" transform="translate(0,0)"/>
<path d="" fill="#30302E" transform="translate(0,0)"/>
<path d="" fill="#323030" transform="translate(0,0)"/>
<path d="" fill="#2C2C2C" transform="translate(0,0)"/>
<path d="" fill="#383737" transform="translate(0,0)"/>
<path d="" fill="#303230" transform="translate(0,0)"/>
<path d="" fill="#2E2E2F" transform="translate(0,0)"/>
<path d="" fill="#30302F" transform="translate(0,0)"/>
<path d="" fill="#2E2E2E" transform="translate(0,0)"/>
<path d="" fill="#2D2E2E" transform="translate(0,0)"/>
<path d="" fill="#353434" transform="translate(0,0)"/>
<path d="" fill="#313230" transform="translate(0,0)"/>
<path d="" fill="#303030" transform="translate(0,0)"/>
<path d="" fill="#2D2D2E" transform="translate(0,0)"/>
<path d="" fill="#302E2D" transform="translate(0,0)"/>
<path d="" fill="#30302F" transform="translate(0,0)"/>
<path d="" fill="#2E2E2D" transform="translate(0,0)"/>
<path d="" fill="#30302F" transform="translate(0,0)"/>
<path d="" fill="#2D2D2C" transform="translate(0,0)"/>
<path d="" fill="#2F3131" transform="translate(0,0)"/>
<path d="" fill="#313130" transform="translate(0,0)"/>
<path d="" fill="#2B2D2A" transform="translate(0,0)"/>
<path d="" fill="#302F2E" transform="translate(0,0)"/>
<path d="" fill="#2E2F2B" transform="translate(0,0)"/>
<path d="" fill="#2B2D2D" transform="translate(0,0)"/>
<path d="" fill="#2C2E2D" transform="translate(0,0)"/>
<path d="" fill="#2D2D2C" transform="translate(0,0)"/>
<path d="" fill="#31312F" transform="translate(0,0)"/>
<path d="" fill="#2D2D2D" transform="translate(0,0)"/>
<path d="" fill="#2C2E2E" transform="translate(0,0)"/>
<path d="" fill="#2D2D2B" transform="translate(0,0)"/>
<path d="" fill="#2D2E2E" transform="translate(0,0)"/>
<path d="" fill="#313433" transform="translate(0,0)"/>
<path d="" fill="#333333" transform="translate(0,0)"/>
<path d="" fill="#313332" transform="translate(0,0)"/>
<path d="" fill="#2B2A2C" transform="translate(0,0)"/>
<path d="" fill="#323130" transform="translate(0,0)"/>
<path d="" fill="#2D2D2C" transform="translate(0,0)"/>
<path d="" fill="#2F2F2D" transform="translate(0,0)"/>
<path d="" fill="#303032" transform="translate(0,0)"/>
<path d="" fill="#30302F" transform="translate(0,0)"/>
<path d="" fill="#2F3230" transform="translate(0,0)"/>
<path d="" fill="#2D2E2D" transform="translate(0,0)"/>
<path d="" fill="#303130" transform="translate(0,0)"/>
<path d="" fill="#353634" transform="translate(0,0)"/>
<path d="" fill="#31322F" transform="translate(0,0)"/>
<path d="" fill="#302F2D" transform="translate(0,0)"/>
<path d="" fill="#2E2D2E" transform="translate(0,0)"/>
<path d="" fill="#2F2E2F" transform="translate(0,0)"/>
<path d="" fill="#30302E" transform="translate(0,0)"/>
<path d="" fill="#32302F" transform="translate(0,0)"/>
<path d="" fill="#323332" transform="translate(0,0)"/>
<path d="" fill="#2C2B2D" transform="translate(0,0)"/>
<path d="" fill="#343533" transform="translate(0,0)"/>
<path d="" fill="#302E2D" transform="translate(0,0)"/>
<path d="" fill="#312E2D" transform="translate(0,0)"/>
<path d="" fill="#31302F" transform="translate(0,0)"/>
<path d="" fill="#313231" transform="translate(0,0)"/>
<path d="" fill="#31302E" transform="translate(0,0)"/>
<path d="" fill="#343334" transform="translate(0,0)"/>
<path d="" fill="#2D2D2E" transform="translate(0,0)"/>
<path d="" fill="#323432" transform="translate(0,0)"/>
<path d="" fill="#322E2F" transform="translate(0,0)"/>
<path d="" fill="#323231" transform="translate(0,0)"/>
<path d="" fill="#2D2E2E" transform="translate(0,0)"/>
<path d="" fill="#30302E" transform="translate(0,0)"/>
<path d="" fill="#2E2E2F" transform="translate(0,0)"/>
<path d="" fill="#303331" transform="translate(0,0)"/>
<path d="" fill="#343233" transform="translate(0,0)"/>
<path d="" fill="#2F2D2C" transform="translate(0,0)"/>
<path d="" fill="#3B3A39" transform="translate(0,0)"/>
<path d="" fill="#2D2B30" transform="translate(0,0)"/>
<path d="" fill="#2E312E" transform="translate(0,0)"/>
<path d="" fill="#31302F" transform="translate(0,0)"/>
<path d="" fill="#302D2E" transform="translate(0,0)"/>
<path d="" fill="#2E2D2C" transform="translate(0,0)"/>
<path d="" fill="#2F312F" transform="translate(0,0)"/>
<path d="" fill="#31302E" transform="translate(0,0)"/>
<path d="" fill="#32302F" transform="translate(0,0)"/>
<path d="" fill="#312F2E" transform="translate(0,0)"/>
<path d="" fill="#30302F" transform="translate(0,0)"/>
<path d="" fill="#302F2F" transform="translate(0,0)"/>
<path d="" fill="#312F2F" transform="translate(0,0)"/>
<path d="" fill="#323130" transform="translate(0,0)"/>
<path d="" fill="#302E2F" transform="translate(0,0)"/>
<path d="" fill="#2E2F2C" transform="translate(0,0)"/>
<path d="" fill="#31302D" transform="translate(0,0)"/>
<path d="" fill="#30302F" transform="translate(0,0)"/>
<path d="" fill="#353536" transform="translate(0,0)"/>
<path d="" fill="#323230" transform="translate(0,0)"/>
<path d="" fill="#2F2F2E" transform="translate(0,0)"/>
<path d="" fill="#363536" transform="translate(0,0)"/>
<path d="" fill="#31302F" transform="translate(0,0)"/>
<path d="" fill="#302F2E" transform="translate(0,0)"/>
<path d="" fill="#303130" transform="translate(0,0)"/>
<path d="" fill="#323233" transform="translate(0,0)"/>
<path d="" fill="#353535" transform="translate(0,0)"/>
<path d="" fill="#2F312E" transform="translate(0,0)"/>
<path d="" fill="#363436" transform="translate(0,0)"/>
<path d="" fill="#302F2E" transform="translate(0,0)"/>
<path d="" fill="#2E3130" transform="translate(0,0)"/>
<path d="" fill="#313130" transform="translate(0,0)"/>
<path d="" fill="#343737" transform="translate(0,0)"/>
<path d="" fill="#3A3939" transform="translate(0,0)"/>
<path d="" fill="#313331" transform="translate(0,0)"/>
<path d="" fill="#303030" transform="translate(0,0)"/>
<path d="" fill="#2F302E" transform="translate(0,0)"/>
<path d="" fill="#373B37" transform="translate(0,0)"/>
<path d="" fill="#323230" transform="translate(0,0)"/>
<path d="" fill="#323231" transform="translate(0,0)"/>
<path d="" fill="#333330" transform="translate(0,0)"/>
<path d="" fill="#343531" transform="translate(0,0)"/>
<path d="" fill="#383637" transform="translate(0,0)"/>
<path d="" fill="#373636" transform="translate(0,0)"/>
<path d="" fill="#313230" transform="translate(0,0)"/>
<path d="" fill="#373738" transform="translate(0,0)"/>
<path d="" fill="#323231" transform="translate(0,0)"/>
<path d="" fill="#353332" transform="translate(0,0)"/>
<path d="" fill="#30302D" transform="translate(0,0)"/>
<path d="" fill="#333434" transform="translate(0,0)"/>
<path d="" fill="#373837" transform="translate(0,0)"/>
<path d="" fill="#333433" transform="translate(0,0)"/>
<path d="" fill="#313533" transform="translate(0,0)"/>
<path d="" fill="#343334" transform="translate(0,0)"/>
<path d="" fill="#313131" transform="translate(0,0)"/>
<path d="" fill="#313130" transform="translate(0,0)"/>
<path d="" fill="#353335" transform="translate(0,0)"/>
<path d="" fill="#373534" transform="translate(0,0)"/>
<path d="" fill="#333433" transform="translate(0,0)"/>
<path d="" fill="#323030" transform="translate(0,0)"/>
<path d="" fill="#313031" transform="translate(0,0)"/>
<path d="" fill="#302E2F" transform="translate(0,0)"/>
<path d="" fill="#2E2F2E" transform="translate(0,0)"/>
<path d="" fill="#323332" transform="translate(0,0)"/>
<path d="" fill="#363635" transform="translate(0,0)"/>
<path d="" fill="#373736" transform="translate(0,0)"/>
<path d="" fill="#302E2F" transform="translate(0,0)"/>
<path d="" fill="#302F2E" transform="translate(0,0)"/>
<path d="" fill="#393A38" transform="translate(0,0)"/>
<path d="" fill="#2A2829" transform="translate(0,0)"/>
<path d="" fill="#30312F" transform="translate(0,0)"/>
<path d="" fill="#31312E" transform="translate(0,0)"/>
<path d="" fill="#323130" transform="translate(0,0)"/>
<path d="" fill="#3A3B38" transform="translate(0,0)"/>
<path d="" fill="#323331" transform="translate(0,0)"/>
<path d="" fill="#424341" transform="translate(0,0)"/>
<path d="" fill="#41413D" transform="translate(0,0)"/>
<path d="" fill="#393C38" transform="translate(0,0)"/>
<path d="" fill="#3C3E3D" transform="translate(0,0)"/>
<path d="" fill="#393736" transform="translate(0,0)"/>
<path d="" fill="#333130" transform="translate(0,0)"/>
<path d="" fill="#33312F" transform="translate(0,0)"/>
<path d="" fill="#30312F" transform="translate(0,0)"/>
<path d="" fill="#30312F" transform="translate(0,0)"/>
<path d="" fill="#32312F" transform="translate(0,0)"/>
<path d="" fill="#333331" transform="translate(0,0)"/>
<path d="" fill="#323230" transform="translate(0,0)"/>
<path d="" fill="#323230" transform="translate(0,0)"/>
<path d="" fill="#3A3937" transform="translate(0,0)"/>
<path d="" fill="#353635" transform="translate(0,0)"/>
<path d="" fill="#3A3837" transform="translate(0,0)"/>
<path d="" fill="#373737" transform="translate(0,0)"/>
</svg>
